<svg xmlns="http://www.w3.org/2000/svg" width="85.52" height="80.687" viewBox="0 0 85.52 80.687">
  <g id="Group_1" data-name="Group 1" transform="translate(-169.88 -825.486)">
    <path id="Icon_zocial-call" data-name="Icon zocial-call" d="M3.414,16.7a5.157,5.157,0,0,1,1.313-2.8l10.5-10.5q1.227-1.05,1.838.35l8.489,15.927a2.292,2.292,0,0,1-.438,2.713l-3.851,3.851a4.355,4.355,0,0,0-1.225,2.713q0,2.625,2.713,6.739a57.545,57.545,0,0,0,5.338,7l2.713,2.8c.818.818,1.865,1.824,3.153,3.019A52.834,52.834,0,0,0,40.3,53.236q4.418,2.933,6.957,2.932a3.81,3.81,0,0,0,2.8-1.138l4.553-4.551a1.923,1.923,0,0,1,2.623-.35l15.318,9.014a1.279,1.279,0,0,1,.7.919,1.118,1.118,0,0,1-.35,1.006L62.4,71.57a5.143,5.143,0,0,1-2.8,1.31A21.172,21.172,0,0,1,49.931,71.7a43.763,43.763,0,0,1-9.974-4.769q-4.594-2.974-8.533-6.036t-6.3-5.251l-2.275-2.191q-.874-.874-2.319-2.407t-5.037-6.036a87.89,87.89,0,0,1-6.213-8.8,51.306,51.306,0,0,1-4.551-9.758A20.758,20.758,0,0,1,3.414,16.7Z" transform="translate(167.612 832.137)" fill="none" stroke="#0079b2" stroke-width="2"/>
    <g id="Group_2" data-name="Group 2" transform="translate(-145 -61.485)">
      <path id="Icon_open-plus" data-name="Icon open-plus" d="M8.71,0V8.71H0v5.807H8.71v8.71h5.807v-8.71h8.71V8.71h-8.71V0Z" transform="translate(365.965 893.234)" fill="none" stroke="#0079b2" stroke-width="2"/>
      <path id="Icon_material-chat-bubble" data-name="Icon material-chat-bubble" d="M42.278,3H7.364A4.377,4.377,0,0,0,3,7.364V46.642l8.728-8.728h30.55a4.377,4.377,0,0,0,4.364-4.364V7.364A4.377,4.377,0,0,0,42.278,3Z" transform="translate(352.758 884.971)" fill="none" stroke="#0079b2" stroke-width="2"/>
    </g>
  </g>
</svg>
