<svg xmlns="http://www.w3.org/2000/svg"  viewBox="0 0 21.504 17.658">
  <path id="Icon_awesome-list-alt" data-name="Icon awesome-list-alt" d="M9.4,9.154a2.45,2.45,0,1,0,2.5,2.45A2.475,2.475,0,0,0,9.4,9.154Zm0,5.879a2.45,2.45,0,1,0,2.5,2.45A2.475,2.475,0,0,0,9.4,15.034Zm0,5.879a2.45,2.45,0,1,0,2.5,2.45A2.475,2.475,0,0,0,9.4,20.913Zm18-8.329v-1.96a.743.743,0,0,0-.75-.735h-12.5a.743.743,0,0,0-.75.735v1.96a.743.743,0,0,0,.75.735h12.5A.743.743,0,0,0,27.408,12.584Zm0,5.879V16.5a.743.743,0,0,0-.75-.735h-12.5a.743.743,0,0,0-.75.735v1.96a.743.743,0,0,0,.75.735h12.5A.743.743,0,0,0,27.408,18.463Zm0,5.879v-1.96a.743.743,0,0,0-.75-.735h-12.5a.743.743,0,0,0-.75.735v1.96a.743.743,0,0,0,.75.735h12.5A.743.743,0,0,0,27.408,24.342Z" transform="translate(-6.404 -8.655)" fill="none" stroke="#055683" stroke-width="1"/>
</svg>
