<svg xmlns="http://www.w3.org/2000/svg" width="37.427" height="25" viewBox="0 0 37.427 25">
  <path id="Icon_payment-cash" data-name="Icon payment-cash" d="M43.876,17.592V40.107a1.6,1.6,0,0,1-.366.877,1.2,1.2,0,0,1-.877.366H7.692a1.191,1.191,0,0,1-.877-.366,1.6,1.6,0,0,1-.366-.877V17.592a1.6,1.6,0,0,1,.366-.877,1.2,1.2,0,0,1,.877-.366H42.633a1.2,1.2,0,0,1,.877.366,1.61,1.61,0,0,1,.366.877ZM41.391,33.821V23.879a4.782,4.782,0,0,1-3.509-1.462,4.867,4.867,0,0,1-1.462-3.582H13.905a4.87,4.87,0,0,1-1.462,3.582,4.785,4.785,0,0,1-3.509,1.462V33.82a4.79,4.79,0,0,1,3.509,1.462,4.874,4.874,0,0,1,1.462,3.582H36.42a4.87,4.87,0,0,1,1.462-3.582,4.788,4.788,0,0,1,3.509-1.462ZM31.376,28.85a12.81,12.81,0,0,1-.366,2.778,9.368,9.368,0,0,1-1.17,2.631,6.353,6.353,0,0,1-1.974,1.974,5.368,5.368,0,0,1-5.409,0,6.332,6.332,0,0,1-1.974-1.974,9.344,9.344,0,0,1-1.17-2.631,12.75,12.75,0,0,1-.366-2.778,12.761,12.761,0,0,1,.366-2.778,9.339,9.339,0,0,1,1.17-2.631,6.353,6.353,0,0,1,1.974-1.974,5.367,5.367,0,0,1,5.408,0,6.385,6.385,0,0,1,1.974,1.974,9.371,9.371,0,0,1,1.17,2.631,12.8,12.8,0,0,1,.366,2.778Zm-9.941,4.971h7.456V31.993H26.405V23.221H24.212l-2.924,2.7,1.535,1.535a11.969,11.969,0,0,0,1.024-1.1h.073v5.628H21.434v1.828Z" transform="translate(-6.449 -16.35)" fill="#00afdd"/>
</svg>
