<svg xmlns="http://www.w3.org/2000/svg" width="27.973" height="26.721" viewBox="0 0 27.973 26.721">
  <path id="Icon_awesome-star-half-alt" data-name="Icon awesome-star-half-alt" d="M26.54,8.951,18.9,7.839,15.488.93a1.676,1.676,0,0,0-3,0L9.072,7.838,1.432,8.95A1.67,1.67,0,0,0,.507,11.8l5.526,5.376L4.725,24.767a1.674,1.674,0,0,0,1.65,1.955,1.649,1.649,0,0,0,.776-.2l6.834-3.584,6.834,3.585a1.67,1.67,0,0,0,2.426-1.758l-1.306-7.593L27.466,11.8a1.67,1.67,0,0,0-.925-2.85Zm-6.353,6.43-.946.92.223,1.3,1.019,5.921-5.33-2.8-1.168-.613,0-16.554L16.65,8.947l.583,1.181,1.305.19,5.961.868-4.313,4.2Z" transform="translate(0)" fill="#213e7b"/>
</svg>
