<svg xmlns="http://www.w3.org/2000/svg" width="30.974" height="29.762" viewBox="0 0 30.974 29.762">
  <path id="Icon_awesome-star" data-name="Icon awesome-star" d="M13.9.929,10.5,7.839,2.871,8.95a1.671,1.671,0,0,0-.924,2.85l5.516,5.376-1.3,7.594a1.669,1.669,0,0,0,2.422,1.759L15.4,22.943l6.821,3.585a1.67,1.67,0,0,0,2.422-1.759l-1.3-7.594L28.856,11.8a1.671,1.671,0,0,0-.924-2.85L20.307,7.839,16.9.929a1.671,1.671,0,0,0-3,0Z" transform="translate(0.085 1.501)" fill="none" stroke="#213e7b" stroke-width="3"/>
</svg>
