<?xml version="1.0" encoding="UTF-8" standalone="no"?>
<!-- Created with Inkscape (http://www.inkscape.org/) -->

<svg
   xmlns:dc="http://purl.org/dc/elements/1.1/"
   xmlns:cc="http://creativecommons.org/ns#"
   xmlns:rdf="http://www.w3.org/1999/02/22-rdf-syntax-ns#"
   xmlns:svg="http://www.w3.org/2000/svg"
   xmlns="http://www.w3.org/2000/svg"
   xmlns:sodipodi="http://sodipodi.sourceforge.net/DTD/sodipodi-0.dtd"
   xmlns:inkscape="http://www.inkscape.org/namespaces/inkscape"
   width="200.1723mm"
   height="30.555723mm"
   viewBox="0 0 200.17231 30.555723"
   version="1.1"
   id="svg5099"
   inkscape:version="0.92.4 (5da689c313, 2019-01-14)"
   sodipodi:docname="teespring.svg">
  <defs
     id="defs5093" />
  <sodipodi:namedview
     id="base"
     pagecolor="#ffffff"
     bordercolor="#666666"
     borderopacity="1.0"
     inkscape:pageopacity="0.0"
     inkscape:pageshadow="2"
     inkscape:zoom="1.4"
     inkscape:cx="394.79221"
     inkscape:cy="182.34803"
     inkscape:document-units="mm"
     inkscape:current-layer="layer1"
     showgrid="false"
     inkscape:window-width="1920"
     inkscape:window-height="1017"
     inkscape:window-x="-8"
     inkscape:window-y="176"
     inkscape:window-maximized="1" />
  <metadata
     id="metadata5096">
    <rdf:RDF>
      <cc:Work
         rdf:about="">
        <dc:format>image/svg+xml</dc:format>
        <dc:type
           rdf:resource="http://purl.org/dc/dcmitype/StillImage" />
        <dc:title />
      </cc:Work>
    </rdf:RDF>
  </metadata>
  <g
     inkscape:label="Layer 1"
     inkscape:groupmode="layer"
     id="layer1"
     transform="translate(-22.300415,-124.51796)">
    <path
       d="m 64.145667,128.39346 c -2.041528,0 -3.70181,1.62955 -3.70181,3.63263 0,2.85168 1.076107,5.45741 2.850148,7.45898 0.734829,0.82704 1.588031,1.5496 2.536545,2.14143 0.568824,-0.8501 1.045358,-1.76788 1.411236,-2.7364 0.550348,-1.46041 0.851663,-3.03923 0.851663,-4.68568 0,-0.97769 -0.107606,-1.93081 -0.310559,-2.85168 -0.01569,-0.0767 -0.03544,-0.15397 -0.05403,-0.23066 -0.410437,-1.56802 -1.860132,-2.72868 -3.581904,-2.72868 z m -22.8381,10.49664 c 0.365872,0.96852 0.842441,1.8863 1.414316,2.7364 0.945439,-0.59183 1.798641,-1.31439 2.533465,-2.14143 1.775581,-1.99849 2.853227,-4.6073 2.853227,-7.45898 0,-2.00308 -1.660282,-3.63263 -3.704889,-3.63263 -1.721772,0 -3.16991,1.16217 -3.581904,2.72716 -0.01569,0.0767 -0.0366,0.15398 -0.05403,0.23067 -0.199873,0.92238 -0.307479,1.87549 -0.307479,2.85319 0,1.64494 0.299751,3.22527 0.850128,4.68568 z m 41.107355,-1.77706 3.529634,1.73407 c -2.551913,4.99618 -7.817159,8.43051 -13.903326,8.43051 -1.789415,0 -3.50504,-0.29981 -5.106899,-0.84551 -3.223719,3.20988 -7.701867,5.20373 -12.659652,5.20373 -4.957785,0 -9.439012,-1.99542 -12.661185,-5.20681 -1.598792,0.54733 -3.320564,0.84551 -5.108445,0.84551 -6.333666,0 -11.783388,-3.72025 -14.204634,-9.05465 l 3.612651,-1.57574 c 1.807863,3.97695 5.872477,6.75797 10.591983,6.75797 0.860889,0 1.701791,-0.0953 2.508871,-0.27076 -1.591105,-2.6134 -2.505797,-5.66494 -2.505797,-8.92863 0,-1.24211 0.133752,-2.45506 0.384349,-3.62339 0.0366,-0.16908 0.07687,-0.33235 0.118355,-0.49794 0.871649,-3.20372 3.849396,-5.56193 7.389791,-5.56193 0.07071,0 0.138342,0.003 0.209053,0.005 0.215212,0.006 0.430424,0.0174 0.642592,0.0407 3.827875,0.41485 6.801008,3.59731 6.801008,7.46049 0,5.19304 -2.64723,9.77722 -6.687249,12.52902 2.407412,1.99849 5.515825,3.2068 8.908646,3.2068 3.39128,0 6.499694,-1.20988 8.907106,-3.2068 -4.04002,-2.7518 -6.68725,-7.33755 -6.68725,-12.52902 0,-3.86475 2.973134,-7.04697 6.797935,-7.462 0.212133,-0.0232 0.425834,-0.0349 0.642592,-0.0407 0.07071,0 0.138342,-0.005 0.210622,-0.005 3.541935,0 6.518148,2.35972 7.391331,5.56501 0.04125,0.16443 0.08146,0.32886 0.118355,0.49678 0.252107,1.16832 0.384349,2.38278 0.384349,3.62339 0,3.26368 -0.914692,6.31831 -2.505797,8.92863 0.80862,0.17547 1.644914,0.27076 2.505797,0.27076 4.53503,0 8.464364,-2.56419 10.372146,-6.2906 z"
       id="teespring-logo"
       inkscape:connector-curvature="0"
       style="fill:#ed2761;fill-opacity:1;stroke-width:1.53729796" />
    <g
       aria-label="Teespring"
       style="font-style:normal;font-variant:normal;font-weight:bold;font-stretch:normal;font-size:11.64102364px;line-height:1.25;font-family:'GT Haptik';-inkscape-font-specification:'GT Haptik Bold';letter-spacing:0px;word-spacing:0px;fill:#282562;fill-opacity:1;stroke:none;stroke-width:0.87307674"
       id="text823"
       transform="matrix(2.4998872,0,0,2.4998872,-134.20772,-201.89121)">
      <path
         d="m 92.703145,140.31287 h 1.629743 v -6.51898 h 2.945179 v -1.62974 h -7.520101 v 1.62974 h 2.945179 z"
         style="fill:#282562;fill-opacity:1;stroke-width:0.87307674"
         id="path825"
         inkscape:connector-curvature="0" />
      <path
         d="m 96.516671,137.40261 c 0,1.73451 1.152461,3.04995 3.119794,3.04995 1.117535,0 1.839285,-0.37251 2.316565,-0.76831 l -0.64026,-1.26887 c -0.40743,0.34923 -0.95456,0.59369 -1.653022,0.59369 -0.67518,0 -1.373641,-0.33759 -1.559898,-1.11754 l -0.01164,-0.0233 h 4.2839 v -0.41908 c 0,-1.8742 -1.09426,-3.09651 -2.875336,-3.09651 -1.827641,0 -2.980102,1.32708 -2.980102,3.04995 z m 4.179129,-0.6519 h -2.619232 c 0.151334,-0.7101 0.640257,-1.09425 1.373641,-1.09425 0.745021,0 1.175741,0.46564 1.245591,1.09425 z"
         style="fill:#282562;fill-opacity:1;stroke-width:0.87307674"
         id="path827"
         inkscape:connector-curvature="0" />
      <path
         d="m 102.99654,137.40261 c 0,1.73451 1.15246,3.04995 3.11979,3.04995 1.11754,0 1.83928,-0.37251 2.31657,-0.76831 l -0.64026,-1.26887 c -0.40744,0.34923 -0.95456,0.59369 -1.65303,0.59369 -0.67518,0 -1.37364,-0.33759 -1.55989,-1.11754 l -0.0116,-0.0233 h 4.28389 v -0.41908 c 0,-1.8742 -1.09425,-3.09651 -2.87533,-3.09651 -1.82764,0 -2.9801,1.32708 -2.9801,3.04995 z m 4.17913,-0.6519 h -2.61924 c 0.15134,-0.7101 0.64026,-1.09425 1.37365,-1.09425 0.74502,0 1.17574,0.46564 1.24559,1.09425 z"
         style="fill:#282562;fill-opacity:1;stroke-width:0.87307674"
         id="path829"
         inkscape:connector-curvature="0" />
      <path
         d="m 109.69758,136.20358 c 0,1.24559 1.02441,1.64139 1.93241,1.83929 1.00113,0.22118 1.29216,0.29102 1.29216,0.59369 0,0.32595 -0.33759,0.44236 -0.76831,0.44236 -0.87308,0 -1.47841,-0.32595 -1.85092,-0.75667 l -0.89636,1.1641 c 0.50056,0.61698 1.4202,0.96621 2.5843,0.96621 1.60647,0 2.51447,-0.61698 2.51447,-1.89749 0,-1.1641 -0.75667,-1.57154 -1.86257,-1.82764 -1.07097,-0.24446 -1.35036,-0.30267 -1.35036,-0.58205 0,-0.2561 0.25611,-0.40744 0.73339,-0.40744 0.59369,0 1.23395,0.20954 1.58318,0.5937 l 0.86143,-1.11754 c -0.52384,-0.54713 -1.28051,-0.86144 -2.31656,-0.86144 -1.52497,0 -2.45626,0.66354 -2.45626,1.85092 z"
         style="fill:#282562;fill-opacity:1;stroke-width:0.87307674"
         id="path831"
         inkscape:connector-curvature="0" />
      <path
         d="m 115.40769,142.64107 h 1.53661 v -3.16636 c 0.454,0.62862 1.15246,0.98949 1.95569,0.98949 1.5599,0 2.63088,-1.25723 2.63088,-3.06159 0,-1.816 -1.08262,-3.06159 -2.65416,-3.06159 -0.80323,0 -1.49005,0.33759 -1.93241,0.95457 v -0.80324 h -1.53661 z m 3.01502,-3.67856 c -0.89636,0 -1.52497,-0.62862 -1.52497,-1.5599 0,-0.93128 0.62861,-1.5599 1.52497,-1.5599 0.89636,0 1.52498,0.64026 1.52498,1.5599 0,0.91964 -0.62862,1.5599 -1.52498,1.5599 z"
         style="fill:#282562;fill-opacity:1;stroke-width:0.87307674"
         id="path833"
         inkscape:connector-curvature="0" />
      <path
         d="m 124.00258,135.44692 v -0.95457 h -1.47841 v 5.82052 h 1.53662 v -2.63088 c 0,-1.11753 0.454,-1.68794 1.46676,-1.68794 0.24447,0 0.48893,0.0233 0.69847,0.0931 v -1.65302 c -0.18626,-0.0466 -0.36088,-0.0815 -0.57041,-0.0815 -0.81488,0 -1.33872,0.41908 -1.65303,1.09426 z"
         style="fill:#282562;fill-opacity:1;stroke-width:0.87307674"
         id="path835"
         inkscape:connector-curvature="0" />
      <path
         d="m 127.88741,133.80553 c 0.57041,0 0.98949,-0.41907 0.98949,-0.97784 0,-0.57041 -0.41908,-0.98949 -0.98949,-0.98949 -0.55877,0 -0.97785,0.41908 -0.97785,0.98949 0,0.55877 0.41908,0.97784 0.97785,0.97784 z m 0.76831,0.68682 h -1.53662 v 5.82052 h 1.53662 z"
         style="fill:#282562;fill-opacity:1;stroke-width:0.87307674"
         id="path837"
         inkscape:connector-curvature="0" />
      <path
         d="m 130.09538,140.31287 h 1.53662 v -2.78221 c 0,-1.1059 0.43072,-1.69959 1.24559,-1.69959 0.7101,0 1.08261,0.43072 1.08261,1.25723 v 3.22457 h 1.57154 v -3.64364 c 0,-1.47841 -0.74502,-2.31657 -2.04882,-2.31657 -0.77995,0 -1.45513,0.34923 -1.89749,1.02441 v -0.88472 h -1.49005 z"
         style="fill:#282562;fill-opacity:1;stroke-width:0.87307674"
         id="path839"
         inkscape:connector-curvature="0" />
      <path
         d="m 136.55543,137.37933 c 0,1.80436 1.08261,2.99174 2.73564,2.99174 0.80323,0 1.47841,-0.32595 1.8742,-0.89636 v 0.37252 c 0,1.00112 -0.57041,1.50169 -1.69959,1.50169 -0.69846,0 -1.26887,-0.24446 -1.76943,-0.73339 l -0.75667,1.26887 c 0.66354,0.61698 1.49005,0.908 2.57267,0.908 2.06046,0 3.16636,-1.00112 3.16636,-2.86369 v -5.43636 h -1.53662 v 0.81488 c -0.37251,-0.5937 -1.09426,-0.95457 -1.89749,-0.95457 -1.58318,0 -2.68907,1.24559 -2.68907,3.02667 z m 4.62148,0.0233 c 0,0.93128 -0.60533,1.5599 -1.50169,1.5599 -0.908,0 -1.53661,-0.64026 -1.53661,-1.5599 0,-0.91964 0.62861,-1.5599 1.53661,-1.5599 0.89636,0 1.50169,0.62862 1.50169,1.5599 z"
         style="fill:#282562;fill-opacity:1;stroke-width:0.87307674"
         id="path841"
         inkscape:connector-curvature="0" />
    </g>
  </g>
</svg>
