<svg xmlns="http://www.w3.org/2000/svg" width="27.545" height="22.381" viewBox="0 0 27.545 22.381">
  <path id="Icon_awesome-list-ul" data-name="Icon awesome-list-ul" d="M2.582,3.375A2.582,2.582,0,1,0,5.165,5.957,2.582,2.582,0,0,0,2.582,3.375Zm0,8.608a2.582,2.582,0,1,0,2.582,2.582,2.582,2.582,0,0,0-2.582-2.582Zm0,8.608a2.582,2.582,0,1,0,2.582,2.582,2.582,2.582,0,0,0-2.582-2.582Zm24.1.861H9.469a.861.861,0,0,0-.861.861v1.722a.861.861,0,0,0,.861.861H26.684a.861.861,0,0,0,.861-.861V22.312A.861.861,0,0,0,26.684,21.452Zm0-17.216H9.469a.861.861,0,0,0-.861.861V6.818a.861.861,0,0,0,.861.861H26.684a.861.861,0,0,0,.861-.861V5.1A.861.861,0,0,0,26.684,4.236Zm0,8.608H9.469a.861.861,0,0,0-.861.861v1.722a.861.861,0,0,0,.861.861H26.684a.861.861,0,0,0,.861-.861V13.7A.861.861,0,0,0,26.684,12.844Z" transform="translate(0 -3.375)" fill="#166589"/>
</svg>
