<svg xmlns="http://www.w3.org/2000/svg" width="55" height="55" viewBox="0 0 55 55">
  <g id="Instagram" transform="translate(-1578 -7343)">
    <g id="Ellipse_18" data-name="Ellipse 18" transform="translate(1578 7343)" fill="none" stroke="#95d7f7" stroke-width="1">
      <circle cx="27.5" cy="27.5" r="27.5" stroke="none"/>
      <circle cx="27.5" cy="27.5" r="27" fill="none"/>
    </g>
    <path id="Icon_awesome-instagram" data-name="Icon awesome-instagram" d="M11.666,7.922A5.982,5.982,0,1,0,17.648,13.9,5.973,5.973,0,0,0,11.666,7.922Zm0,9.871A3.889,3.889,0,1,1,15.555,13.9a3.9,3.9,0,0,1-3.889,3.889ZM19.288,7.677a1.4,1.4,0,1,1-1.4-1.4A1.392,1.392,0,0,1,19.288,7.677ZM23.25,9.093A6.905,6.905,0,0,0,21.366,4.2,6.95,6.95,0,0,0,16.477,2.32c-1.926-.109-7.7-.109-9.627,0A6.941,6.941,0,0,0,1.961,4.2,6.928,6.928,0,0,0,.077,9.088c-.109,1.926-.109,7.7,0,9.627A6.905,6.905,0,0,0,1.961,23.6,6.959,6.959,0,0,0,6.85,25.488c1.926.109,7.7.109,9.627,0A6.905,6.905,0,0,0,21.366,23.6a6.95,6.95,0,0,0,1.885-4.889c.109-1.926.109-7.7,0-9.621ZM20.762,20.782A3.937,3.937,0,0,1,18.544,23c-1.536.609-5.18.469-6.878.469S6.319,23.6,4.789,23a3.937,3.937,0,0,1-2.218-2.218C1.961,19.246,2.1,15.6,2.1,13.9s-.135-5.347.469-6.878A3.937,3.937,0,0,1,4.789,4.808c1.536-.609,5.18-.469,6.878-.469s5.347-.135,6.878.469a3.937,3.937,0,0,1,2.218,2.218c.609,1.536.469,5.18.469,6.878S21.371,19.251,20.762,20.782Z" transform="translate(1594.005 7356.762)" fill="#95d7f7"/>
  </g>
</svg>
