<svg xmlns="http://www.w3.org/2000/svg" width="55" height="55" viewBox="0 0 55 55">
  <g id="Twitter" transform="translate(-1428 -7343)">
    <g id="Ellipse_16" data-name="Ellipse 16" transform="translate(1428 7343)" fill="none" stroke="#95d7f7" stroke-width="1">
      <circle cx="27.5" cy="27.5" r="27.5" stroke="none"/>
      <circle cx="27.5" cy="27.5" r="27" fill="none"/>
    </g>
    <path id="Icon_awesome-twitter" data-name="Icon awesome-twitter" d="M23.917,8.776c.017.237.017.474.017.71A15.438,15.438,0,0,1,8.389,25.031,15.439,15.439,0,0,1,0,22.578a11.3,11.3,0,0,0,1.319.068A10.941,10.941,0,0,0,8.1,20.312a5.473,5.473,0,0,1-5.108-3.789,6.89,6.89,0,0,0,1.032.085,5.778,5.778,0,0,0,1.438-.186A5.464,5.464,0,0,1,1.082,11.06v-.068a5.5,5.5,0,0,0,2.469.693A5.471,5.471,0,0,1,1.861,4.379,15.529,15.529,0,0,0,13.125,10.1a6.167,6.167,0,0,1-.135-1.252,5.468,5.468,0,0,1,9.455-3.738,10.756,10.756,0,0,0,3.467-1.319,5.449,5.449,0,0,1-2.4,3.011,10.952,10.952,0,0,0,3.146-.846,11.744,11.744,0,0,1-2.74,2.825Z" transform="translate(1442 7356.619)" fill="none" stroke="#95d7f7" stroke-width="2"/>
  </g>
</svg>
