<svg xmlns="http://www.w3.org/2000/svg" width="114.032" height="134.511" viewBox="0 0 114.032 134.511">
  <path id="Logo-White" d="M222.945,83.553,176.493,94.684h30.719m-51.024,23,29.647,4.941H156.187L142.65,137.18m13.537,6.445L142.65,156.989m64.385-30.226.092,22.762a7.38,7.38,0,0,1-7.379,7.464h-57.1V43.313L129.286,57.2V173.824h73.751A20.662,20.662,0,0,0,223.7,153.162v-74.1A21.868,21.868,0,0,0,201.831,57.2H156.187v86.429H207.1l-.232-64.551A7.372,7.372,0,0,0,199.45,71.7l-43.263.247m46.8,101.853,7.529-.107a29.219,29.219,0,0,0,28.8-29.216V75.015a31.7,31.7,0,0,0-31.7-31.7H142.65" transform="translate(-127.286 -41.313)" fill="none" stroke="#fff" stroke-linejoin="round" stroke-width="4"/>
</svg>
