<svg xmlns="http://www.w3.org/2000/svg" width="62.573" height="55.62" viewBox="0 0 62.573 55.62">
  <path id="Icon_awesome-file-signature" data-name="Icon awesome-file-signature" d="M23.7,46.076a1.2,1.2,0,0,0-1.1-.708,1.185,1.185,0,0,0-1.089.672l-.833,1.666a1.738,1.738,0,0,1-3.2-.227L15.643,42,14.491,45.46a4.69,4.69,0,0,1-4.454,3.208H8.691a1.738,1.738,0,1,1,0-3.476h1.346a1.218,1.218,0,0,0,1.156-.832l1.976-5.936a2.608,2.608,0,0,1,4.948,0l1.508,4.523a4.875,4.875,0,0,1,7.17,1.538,1.233,1.233,0,0,0,1.017.68V36.244L41.716,22.438V17.381H26.941a2.615,2.615,0,0,1-2.607-2.607V0H2.607A2.6,2.6,0,0,0,0,2.607V53.013A2.6,2.6,0,0,0,2.607,55.62h36.5a2.6,2.6,0,0,0,2.607-2.607V48.667L27.81,48.656A4.664,4.664,0,0,1,23.7,46.076ZM41.715,13.242a2.6,2.6,0,0,0-.76-1.836L30.319.76A2.605,2.605,0,0,0,28.473,0H27.81V13.9H41.715ZM31.286,37.691v7.5h7.495L56.345,27.508l-7.374-7.374L31.286,37.691ZM61.762,18.178,58.3,14.715a2.767,2.767,0,0,0-3.912,0l-2.96,2.96L58.8,25.05l2.96-2.96A2.765,2.765,0,0,0,61.762,18.178Z" fill="#0079b2"/>
</svg>
