<svg xmlns="http://www.w3.org/2000/svg" width="55.62" height="55.62" viewBox="0 0 55.62 55.62">
  <path id="Icon_awesome-certificate" data-name="Icon awesome-certificate" d="M49.821,27.8l5-4.889a2.588,2.588,0,0,0-1.158-4.382l-6.806-1.737,1.919-6.737a2.632,2.632,0,0,0-3.222-3.223L38.814,8.752,37.078,1.944A2.606,2.606,0,0,0,32.7.785L27.81,5.819,22.923.785a2.607,2.607,0,0,0-4.381,1.159L16.806,8.752,10.071,6.833a2.632,2.632,0,0,0-3.222,3.223l1.919,6.737L1.962,18.53A2.588,2.588,0,0,0,.8,22.912l5,4.889L.8,32.69a2.588,2.588,0,0,0,1.158,4.382l6.806,1.737L6.849,45.546a2.632,2.632,0,0,0,3.222,3.223l6.735-1.919,1.736,6.808a2.583,2.583,0,0,0,4.381,1.159l4.887-5,4.887,5a2.594,2.594,0,0,0,4.381-1.159l1.736-6.808,6.735,1.919a2.632,2.632,0,0,0,3.222-3.223l-1.919-6.737,6.806-1.737a2.588,2.588,0,0,0,1.158-4.382l-5-4.889Z" transform="translate(0 0)" fill="#213e7b"/>
</svg>
