<svg xmlns="http://www.w3.org/2000/svg" width="30" height="30" viewBox="0 0 30 30">
  <path id="Icon_ionic-ios-checkbox" data-name="Icon ionic-ios-checkbox" d="M32,4.5H7A2.5,2.5,0,0,0,4.5,7V32A2.5,2.5,0,0,0,7,34.5H32A2.5,2.5,0,0,0,34.5,32V7A2.5,2.5,0,0,0,32,4.5ZM27.9,15.008,17.453,25.5h-.008a1.411,1.411,0,0,1-.906.43,1.368,1.368,0,0,1-.914-.445L11.25,21.109a.311.311,0,0,1,0-.445l1.391-1.391a.3.3,0,0,1,.437,0l3.469,3.469,9.531-9.6a.308.308,0,0,1,.219-.094h0a.284.284,0,0,1,.219.094l1.367,1.414A.308.308,0,0,1,27.9,15.008Z" transform="translate(-4.5 -4.5)" fill="#00afdd"/>
</svg>
