<svg xmlns="http://www.w3.org/2000/svg" width="32" height="32.014" viewBox="0 0 32 32.014">
  <path id="Icon_awesome-book-reader" data-name="Icon awesome-book-reader" d="M20.625,5.625A5.625,5.625,0,1,0,15,11.25,5.625,5.625,0,0,0,20.625,5.625Zm-6.938,8.5C10.21,12,4.58,11.414,1.746,11.253A1.621,1.621,0,0,0,0,12.84V25.894a1.612,1.612,0,0,0,1.552,1.585c2.558.134,7.734.626,11.311,2.427a.816.816,0,0,0,1.2-.7V14.8a.78.78,0,0,0-.376-.671Zm14.567-2.874c-2.833.161-8.464.746-11.94,2.874a.794.794,0,0,0-.376.681v14.4a.818.818,0,0,0,1.2.7c3.576-1.8,8.749-2.292,11.307-2.426A1.612,1.612,0,0,0,30,25.9V12.84A1.622,1.622,0,0,0,28.253,11.253Z" transform="translate(1 1)" fill="none" stroke="#8d8d8d" stroke-width="2"/>
</svg>
