<svg xmlns="http://www.w3.org/2000/svg" width="32.031" height="32.029" viewBox="0 0 32.031 32.029">
  <path id="Icon_awesome-certificate" data-name="Icon awesome-certificate" d="M26.872,15l2.694-2.637a1.4,1.4,0,0,0-.625-2.364l-3.671-.937,1.035-3.634a1.42,1.42,0,0,0-1.738-1.739L20.936,4.721,20,1.049A1.406,1.406,0,0,0,17.636.424L15,3.139,12.364.424A1.406,1.406,0,0,0,10,1.049L9.065,4.721,5.432,3.686A1.42,1.42,0,0,0,3.694,5.424L4.729,9.058l-3.671.937a1.4,1.4,0,0,0-.625,2.364L3.128,15,.433,17.632A1.4,1.4,0,0,0,1.058,20l3.671.937L3.694,24.567a1.42,1.42,0,0,0,1.738,1.739L9.064,25.27,10,28.942a1.393,1.393,0,0,0,2.363.625L15,26.872l2.636,2.7A1.4,1.4,0,0,0,20,28.942l.937-3.672,3.632,1.035a1.42,1.42,0,0,0,1.738-1.739l-1.035-3.634L28.942,20a1.4,1.4,0,0,0,.625-2.364L26.872,15Z" transform="translate(1.015 1.015)" fill="none" stroke="#8d8d8d" stroke-width="2"/>
</svg>
