<svg id="Icon_ionic-md-log-out" data-name="Icon ionic-md-log-out" xmlns="http://www.w3.org/2000/svg" width="30" height="30" viewBox="0 0 30 30">
  <path id="Path_29" data-name="Path 29" d="M13.5,19.5H26.838l-3.066,3.143,2.1,2.1L32.625,18l-6.75-6.75-2.18,2.1L26.838,16.5H13.5Z" transform="translate(-2.625 -3)" fill="#00afdd"/>
  <g id="Group_184" data-name="Group 184">
    <path id="Path_30" data-name="Path 30" d="M18.418,30.3A11.921,11.921,0,1,1,26.856,9.93l2.195-2.185a15.992,15.992,0,0,0-2.006-1.673,15.006,15.006,0,1,0-.007,24.6A14.929,14.929,0,0,0,29.044,29L26.856,26.82A11.881,11.881,0,0,1,18.418,30.3Z" transform="translate(-3.375 -3.375)" fill="#00afdd"/>
    <path id="Path_31" data-name="Path 31" d="M31.458,17.958h.084v.084h-.084Z" transform="translate(-2.625 -3)" fill="#00afdd"/>
  </g>
</svg>
