<svg width="22" height="22" viewBox="0 0 22 22" fill="none" xmlns="http://www.w3.org/2000/svg">
<path d="M18.5833 2.33341H16.4166V1.25008C16.4166 0.962764 16.3025 0.687213 16.0993 0.484049C15.8962 0.280885 15.6206 0.166748 15.3333 0.166748C15.046 0.166748 14.7704 0.280885 14.5673 0.484049C14.3641 0.687213 14.25 0.962764 14.25 1.25008V2.33341H7.74996V1.25008C7.74996 0.962764 7.63582 0.687213 7.43266 0.484049C7.22949 0.280885 6.95394 0.166748 6.66663 0.166748C6.37931 0.166748 6.10376 0.280885 5.90059 0.484049C5.69743 0.687213 5.58329 0.962764 5.58329 1.25008V2.33341H3.41663C2.55467 2.33341 1.72802 2.67582 1.11853 3.28532C0.509036 3.89481 0.166626 4.72146 0.166626 5.58341V18.5834C0.166626 19.4454 0.509036 20.272 1.11853 20.8815C1.72802 21.491 2.55467 21.8334 3.41663 21.8334H18.5833C19.4452 21.8334 20.2719 21.491 20.8814 20.8815C21.4909 20.272 21.8333 19.4454 21.8333 18.5834V5.58341C21.8333 4.72146 21.4909 3.89481 20.8814 3.28532C20.2719 2.67582 19.4452 2.33341 18.5833 2.33341V2.33341ZM19.6666 18.5834C19.6666 18.8707 19.5525 19.1463 19.3493 19.3494C19.1462 19.5526 18.8706 19.6667 18.5833 19.6667H3.41663C3.12931 19.6667 2.85376 19.5526 2.65059 19.3494C2.44743 19.1463 2.33329 18.8707 2.33329 18.5834V11.0001H19.6666V18.5834ZM19.6666 8.83342H2.33329V5.58341C2.33329 5.2961 2.44743 5.02055 2.65059 4.81738C2.85376 4.61422 3.12931 4.50008 3.41663 4.50008H5.58329V5.58341C5.58329 5.87073 5.69743 6.14628 5.90059 6.34945C6.10376 6.55261 6.37931 6.66675 6.66663 6.66675C6.95394 6.66675 7.22949 6.55261 7.43266 6.34945C7.63582 6.14628 7.74996 5.87073 7.74996 5.58341V4.50008H14.25V5.58341C14.25 5.87073 14.3641 6.14628 14.5673 6.34945C14.7704 6.55261 15.046 6.66675 15.3333 6.66675C15.6206 6.66675 15.8962 6.55261 16.0993 6.34945C16.3025 6.14628 16.4166 5.87073 16.4166 5.58341V4.50008H18.5833C18.8706 4.50008 19.1462 4.61422 19.3493 4.81738C19.5525 5.02055 19.6666 5.2961 19.6666 5.58341V8.83342Z" fill="#00E28D"/>
</svg>
