<svg width="21" height="20" viewBox="0 0 21 20" fill="none" xmlns="http://www.w3.org/2000/svg">
<path d="M1.83333 8.91667H8.33333C8.62065 8.91667 8.8962 8.80253 9.09937 8.59937C9.30253 8.3962 9.41667 8.12065 9.41667 7.83333V1.33333C9.41667 1.04602 9.30253 0.770465 9.09937 0.567301C8.8962 0.364137 8.62065 0.25 8.33333 0.25H1.83333C1.54602 0.25 1.27047 0.364137 1.0673 0.567301C0.864137 0.770465 0.75 1.04602 0.75 1.33333V7.83333C0.75 8.12065 0.864137 8.3962 1.0673 8.59937C1.27047 8.80253 1.54602 8.91667 1.83333 8.91667ZM2.91667 2.41667H7.25V6.75H2.91667V2.41667ZM19.1667 0.25H12.6667C12.3793 0.25 12.1038 0.364137 11.9006 0.567301C11.6975 0.770465 11.5833 1.04602 11.5833 1.33333V7.83333C11.5833 8.12065 11.6975 8.3962 11.9006 8.59937C12.1038 8.80253 12.3793 8.91667 12.6667 8.91667H19.1667C19.454 8.91667 19.7295 8.80253 19.9327 8.59937C20.1359 8.3962 20.25 8.12065 20.25 7.83333V1.33333C20.25 1.04602 20.1359 0.770465 19.9327 0.567301C19.7295 0.364137 19.454 0.25 19.1667 0.25ZM18.0833 6.75H13.75V2.41667H18.0833V6.75ZM8.33333 19.75C8.62065 19.75 8.8962 19.6359 9.09937 19.4327C9.30253 19.2295 9.41667 18.954 9.41667 18.6667V12.1667C9.41667 11.8793 9.30253 11.6038 9.09937 11.4006C8.8962 11.1975 8.62065 11.0833 8.33333 11.0833H1.83333C1.54602 11.0833 1.27047 11.1975 1.0673 11.4006C0.864137 11.6038 0.75 11.8793 0.75 12.1667V18.6667C0.75 18.954 0.864137 19.2295 1.0673 19.4327C1.27047 19.6359 1.54602 19.75 1.83333 19.75H8.33333ZM2.91667 13.25H7.25V17.5833H2.91667V13.25ZM17 12.1667H14.8333V14.3333H12.6667V16.5H14.8333V18.6667H17V16.5H19.1667V14.3333H17V12.1667Z" fill="#CBCBD4"/>
</svg>
