<svg width="22" height="22" viewBox="0 0 22 22" fill="none" xmlns="http://www.w3.org/2000/svg">
<path d="M8.83333 20.75H13.1667M18.5833 20.75V3.41667C18.5833 2.84203 18.3551 2.29093 17.9487 1.8846C17.5424 1.47827 16.9913 1.25 16.4167 1.25H5.58333C5.0087 1.25 4.4576 1.47827 4.05127 1.8846C3.64494 2.29093 3.41667 2.84203 3.41667 3.41667V20.75H18.5833ZM18.5833 20.75H20.75H18.5833ZM18.5833 20.75H13.1667H18.5833ZM3.41667 20.75H1.25H3.41667ZM3.41667 20.75H8.83333H3.41667ZM7.75 5.58333H8.83333H7.75ZM7.75 9.91667H8.83333H7.75ZM13.1667 5.58333H14.25H13.1667ZM13.1667 9.91667H14.25H13.1667ZM8.83333 20.75V15.3333C8.83333 15.046 8.94747 14.7705 9.15063 14.5673C9.3538 14.3641 9.62935 14.25 9.91667 14.25H12.0833C12.3707 14.25 12.6462 14.3641 12.8494 14.5673C13.0525 14.7705 13.1667 15.046 13.1667 15.3333V20.75H8.83333Z" stroke="white" stroke-width="2.16667" stroke-linecap="round" stroke-linejoin="round"/>
</svg>
