<svg width="22" height="22" viewBox="0 0 22 22" fill="none" xmlns="http://www.w3.org/2000/svg">
<mask id="path-1-inside-1_1_1028" fill="white">
<path d="M18.927 15.771C18.2915 15.135 17.5489 14.6158 16.7333 14.2374C17.8835 13.3056 18.6173 11.8837 18.6173 10.2892C18.6173 7.47589 16.2712 5.16788 13.4579 5.21105C10.6878 5.25421 8.45592 7.51144 8.45592 10.2892C8.45592 11.8837 9.19225 13.3056 10.3399 14.2374C9.52412 14.6156 8.78148 15.1347 8.14616 15.771C6.75983 17.1599 5.97272 18.9931 5.92194 20.9482C5.92126 20.9753 5.92601 21.0022 5.93592 21.0274C5.94582 21.0527 5.96068 21.0757 5.97961 21.0951C5.99854 21.1145 6.02116 21.1299 6.04614 21.1404C6.07112 21.1509 6.09796 21.1564 6.12506 21.1564H7.54694C7.65612 21.1564 7.74752 21.07 7.75006 20.9608C7.79831 19.4882 8.39499 18.1095 9.44362 17.0634C9.98022 16.5239 10.6185 16.0963 11.3215 15.8051C12.0245 15.514 12.7782 15.3652 13.5391 15.3673C15.0854 15.3673 16.5403 15.9691 17.6346 17.0634C18.6807 18.1095 19.2774 19.4882 19.3282 20.9608C19.3307 21.07 19.4221 21.1564 19.5313 21.1564H20.9532C20.9803 21.1564 21.0071 21.1509 21.0321 21.1404C21.0571 21.1299 21.0797 21.1145 21.0986 21.0951C21.1176 21.0757 21.1324 21.0527 21.1423 21.0274C21.1522 21.0022 21.157 20.9753 21.1563 20.9482C21.1055 18.9931 20.3184 17.1599 18.927 15.771ZM13.5391 13.5392C12.6708 13.5392 11.8532 13.2015 11.2413 12.587C10.9342 12.2823 10.6916 11.9189 10.528 11.5185C10.3644 11.118 10.2832 10.6887 10.2891 10.2562C10.2967 9.42335 10.6294 8.61847 11.2108 8.02179C11.8202 7.39718 12.6352 7.04933 13.5061 7.03917C14.3669 7.03155 15.2022 7.36671 15.8167 7.96847C16.4464 8.58546 16.7917 9.41065 16.7917 10.2892C16.7917 11.1575 16.454 11.9726 15.8395 12.587C15.5381 12.8899 15.1795 13.13 14.7847 13.2935C14.3898 13.4569 13.9665 13.5404 13.5391 13.5392ZM7.17877 10.9595C7.15592 10.7386 7.14323 10.5151 7.14323 10.2892C7.14323 9.88546 7.18131 9.4919 7.25241 9.10851C7.27018 9.0171 7.22194 8.92315 7.13815 8.88507C6.79284 8.73019 6.47545 8.5169 6.20124 8.24776C5.87811 7.93446 5.62385 7.55724 5.45466 7.14018C5.28548 6.72312 5.20508 6.27537 5.21862 5.8255C5.24147 5.01046 5.56901 4.23605 6.1403 3.65206C6.76745 3.00968 7.61041 2.65929 8.5067 2.66944C9.31666 2.67706 10.0987 2.98937 10.6903 3.54288C10.8909 3.73077 11.0635 3.93897 11.2083 4.16241C11.259 4.24112 11.3581 4.27413 11.4444 4.24366C11.8913 4.08878 12.3635 3.9796 12.8485 3.92882C12.9907 3.91358 13.0719 3.76124 13.0085 3.63429C12.1833 2.00167 10.4973 0.874326 8.54733 0.843857C5.73151 0.800693 3.38542 3.1087 3.38542 5.91944C3.38542 7.51397 4.1192 8.93585 5.2694 9.86769C4.46198 10.2409 3.71803 10.7564 3.07311 11.4013C1.6817 12.7901 0.894595 14.6233 0.843813 16.581C0.843136 16.6081 0.847889 16.635 0.857793 16.6603C0.867697 16.6855 0.882552 16.7085 0.901482 16.7279C0.920412 16.7473 0.943034 16.7627 0.968015 16.7732C0.992996 16.7838 1.01983 16.7892 1.04694 16.7892H2.47135C2.58053 16.7892 2.67194 16.7028 2.67448 16.5937C2.72272 15.121 3.3194 13.7423 4.36803 12.6962C5.11452 11.9497 6.02858 11.4317 7.02643 11.1804C7.12545 11.155 7.19147 11.061 7.17877 10.9595Z"/>
</mask>
<path d="M18.927 15.771C18.2915 15.135 17.5489 14.6158 16.7333 14.2374C17.8835 13.3056 18.6173 11.8837 18.6173 10.2892C18.6173 7.47589 16.2712 5.16788 13.4579 5.21105C10.6878 5.25421 8.45592 7.51144 8.45592 10.2892C8.45592 11.8837 9.19225 13.3056 10.3399 14.2374C9.52412 14.6156 8.78148 15.1347 8.14616 15.771C6.75983 17.1599 5.97272 18.9931 5.92194 20.9482C5.92126 20.9753 5.92601 21.0022 5.93592 21.0274C5.94582 21.0527 5.96068 21.0757 5.97961 21.0951C5.99854 21.1145 6.02116 21.1299 6.04614 21.1404C6.07112 21.1509 6.09796 21.1564 6.12506 21.1564H7.54694C7.65612 21.1564 7.74752 21.07 7.75006 20.9608C7.79831 19.4882 8.39499 18.1095 9.44362 17.0634C9.98022 16.5239 10.6185 16.0963 11.3215 15.8051C12.0245 15.514 12.7782 15.3652 13.5391 15.3673C15.0854 15.3673 16.5403 15.9691 17.6346 17.0634C18.6807 18.1095 19.2774 19.4882 19.3282 20.9608C19.3307 21.07 19.4221 21.1564 19.5313 21.1564H20.9532C20.9803 21.1564 21.0071 21.1509 21.0321 21.1404C21.0571 21.1299 21.0797 21.1145 21.0986 21.0951C21.1176 21.0757 21.1324 21.0527 21.1423 21.0274C21.1522 21.0022 21.157 20.9753 21.1563 20.9482C21.1055 18.9931 20.3184 17.1599 18.927 15.771ZM13.5391 13.5392C12.6708 13.5392 11.8532 13.2015 11.2413 12.587C10.9342 12.2823 10.6916 11.9189 10.528 11.5185C10.3644 11.118 10.2832 10.6887 10.2891 10.2562C10.2967 9.42335 10.6294 8.61847 11.2108 8.02179C11.8202 7.39718 12.6352 7.04933 13.5061 7.03917C14.3669 7.03155 15.2022 7.36671 15.8167 7.96847C16.4464 8.58546 16.7917 9.41065 16.7917 10.2892C16.7917 11.1575 16.454 11.9726 15.8395 12.587C15.5381 12.8899 15.1795 13.13 14.7847 13.2935C14.3898 13.4569 13.9665 13.5404 13.5391 13.5392ZM7.17877 10.9595C7.15592 10.7386 7.14323 10.5151 7.14323 10.2892C7.14323 9.88546 7.18131 9.4919 7.25241 9.10851C7.27018 9.0171 7.22194 8.92315 7.13815 8.88507C6.79284 8.73019 6.47545 8.5169 6.20124 8.24776C5.87811 7.93446 5.62385 7.55724 5.45466 7.14018C5.28548 6.72312 5.20508 6.27537 5.21862 5.8255C5.24147 5.01046 5.56901 4.23605 6.1403 3.65206C6.76745 3.00968 7.61041 2.65929 8.5067 2.66944C9.31666 2.67706 10.0987 2.98937 10.6903 3.54288C10.8909 3.73077 11.0635 3.93897 11.2083 4.16241C11.259 4.24112 11.3581 4.27413 11.4444 4.24366C11.8913 4.08878 12.3635 3.9796 12.8485 3.92882C12.9907 3.91358 13.0719 3.76124 13.0085 3.63429C12.1833 2.00167 10.4973 0.874326 8.54733 0.843857C5.73151 0.800693 3.38542 3.1087 3.38542 5.91944C3.38542 7.51397 4.1192 8.93585 5.2694 9.86769C4.46198 10.2409 3.71803 10.7564 3.07311 11.4013C1.6817 12.7901 0.894595 14.6233 0.843813 16.581C0.843136 16.6081 0.847889 16.635 0.857793 16.6603C0.867697 16.6855 0.882552 16.7085 0.901482 16.7279C0.920412 16.7473 0.943034 16.7627 0.968015 16.7732C0.992996 16.7838 1.01983 16.7892 1.04694 16.7892H2.47135C2.58053 16.7892 2.67194 16.7028 2.67448 16.5937C2.72272 15.121 3.3194 13.7423 4.36803 12.6962C5.11452 11.9497 6.02858 11.4317 7.02643 11.1804C7.12545 11.155 7.19147 11.061 7.17877 10.9595Z" fill="#00E28D"/>
<path d="M18.927 15.771L18.2196 16.4778L18.2206 16.4788L18.927 15.771ZM16.7333 14.2374L16.1038 13.4604L14.8579 14.4697L16.3124 15.1445L16.7333 14.2374ZM13.4579 5.21105L13.4425 4.21116L13.4423 4.21117L13.4579 5.21105ZM10.3399 14.2374L10.7605 15.1447L12.214 14.4709L10.9702 13.4611L10.3399 14.2374ZM8.14616 15.771L7.43852 15.0644L7.4384 15.0645L8.14616 15.771ZM5.92194 20.9482L4.92228 20.9222L4.92225 20.9232L5.92194 20.9482ZM6.12506 21.1564V20.1564H6.12475L6.12506 21.1564ZM7.75006 20.9608L6.75055 20.9281L6.75033 20.9376L7.75006 20.9608ZM9.44362 17.0634L10.1499 17.7714L10.1526 17.7686L9.44362 17.0634ZM13.5391 15.3673L13.5363 16.3673H13.5391V15.3673ZM19.3282 20.9608L20.328 20.9376L20.3276 20.9264L19.3282 20.9608ZM20.9532 21.1564L20.9535 20.1564H20.9532V21.1564ZM21.1563 20.9482L22.156 20.9232L22.156 20.9222L21.1563 20.9482ZM13.5391 13.5392L13.542 12.5392H13.5391V13.5392ZM11.2413 12.587L11.9499 11.8814L11.9456 11.8771L11.2413 12.587ZM10.2891 10.2562L11.289 10.2699L11.2891 10.2653L10.2891 10.2562ZM11.2108 8.02179L10.495 7.32346L10.4946 7.32388L11.2108 8.02179ZM13.5061 7.03917L13.4973 6.03921L13.4945 6.03924L13.5061 7.03917ZM15.8167 7.96847L16.5165 7.2542L16.5164 7.25402L15.8167 7.96847ZM15.8395 12.587L15.1324 11.8799L15.1307 11.8816L15.8395 12.587ZM7.25241 9.10851L6.27075 8.91763L6.26917 8.92618L7.25241 9.10851ZM7.13815 8.88507L7.55196 7.97469L7.5474 7.97265L7.13815 8.88507ZM6.20124 8.24776L6.90172 7.53407L6.89735 7.52983L6.20124 8.24776ZM5.21862 5.8255L6.21817 5.85557L6.21823 5.85352L5.21862 5.8255ZM6.1403 3.65206L6.85513 4.35136L6.85584 4.35063L6.1403 3.65206ZM8.5067 2.66944L8.49537 3.66938L8.4973 3.6694L8.5067 2.66944ZM10.6903 3.54288L11.3739 2.81306L11.3735 2.81266L10.6903 3.54288ZM11.2083 4.16241L12.0486 3.62028L12.0476 3.61877L11.2083 4.16241ZM11.4444 4.24366L11.1169 3.29879L11.1116 3.30067L11.4444 4.24366ZM12.8485 3.92882L12.9526 4.92338L12.955 4.92313L12.8485 3.92882ZM13.0085 3.63429L13.9029 3.18707L13.9009 3.18319L13.0085 3.63429ZM8.54733 0.843857L8.56295 -0.156021L8.56266 -0.156025L8.54733 0.843857ZM5.2694 9.86769L5.689 10.7754L7.14666 10.1016L5.89889 9.09068L5.2694 9.86769ZM3.07311 11.4013L3.77957 12.109L3.78022 12.1084L3.07311 11.4013ZM0.843813 16.581L-0.155851 16.555L-0.155874 16.556L0.843813 16.581ZM1.04694 16.7892V15.7892H1.04663L1.04694 16.7892ZM2.67448 16.5937L1.67497 16.5609L1.67475 16.5704L2.67448 16.5937ZM4.36803 12.6962L5.07428 13.4042L5.07514 13.4033L4.36803 12.6962ZM7.02643 11.1804L7.27071 12.1501L7.27481 12.149L7.02643 11.1804ZM19.6344 15.0642C18.9159 14.3451 18.0763 13.7581 17.1541 13.3303L16.3124 15.1445C17.0215 15.4735 17.6671 15.9249 18.2196 16.4778L19.6344 15.0642ZM17.3628 15.0144C18.7373 13.9008 19.6173 12.198 19.6173 10.2892H17.6173C17.6173 11.5694 17.0296 12.7103 16.1038 13.4604L17.3628 15.0144ZM19.6173 10.2892C19.6173 6.91695 16.8134 4.15944 13.4425 4.21116L13.4732 6.21093C15.7289 6.17632 17.6173 8.03483 17.6173 10.2892H19.6173ZM13.4423 4.21117C10.1276 4.26282 7.45592 6.96369 7.45592 10.2892H9.45592C9.45592 8.05918 11.2479 6.2456 13.4735 6.21092L13.4423 4.21117ZM7.45592 10.2892C7.45592 12.1989 8.33911 13.901 9.70957 15.0137L10.9702 13.4611C10.0454 12.7102 9.45592 11.5685 9.45592 10.2892H7.45592ZM9.91936 13.3301C8.99681 13.7578 8.15698 14.3449 7.43852 15.0644L8.8538 16.4776C9.40598 15.9246 10.0514 15.4733 10.7605 15.1447L9.91936 13.3301ZM7.4384 15.0645C5.87179 16.634 4.97972 18.7106 4.92228 20.9222L6.9216 20.9741C6.96572 19.2756 7.64787 17.6857 8.85391 16.4775L7.4384 15.0645ZM4.92225 20.9232C4.91824 21.0837 4.94639 21.2434 5.00505 21.3928L6.86678 20.6621C6.90563 20.7611 6.92428 20.8668 6.92163 20.9732L4.92225 20.9232ZM5.00505 21.3928C5.06371 21.5423 5.15169 21.6785 5.26382 21.7934L6.69539 20.3968C6.76966 20.4729 6.82793 20.5631 6.86678 20.6621L5.00505 21.3928ZM5.26382 21.7934C5.37595 21.9083 5.50995 21.9997 5.65791 22.062L6.43437 20.2189C6.53237 20.2601 6.62112 20.3206 6.69539 20.3968L5.26382 21.7934ZM5.65791 22.062C5.80588 22.1243 5.96482 22.1564 6.12538 22.1564L6.12475 20.1564C6.23109 20.1563 6.33637 20.1776 6.43437 20.2189L5.65791 22.062ZM6.12506 22.1564H7.54694V20.1564H6.12506V22.1564ZM7.54694 22.1564C8.17986 22.1564 8.73418 21.6556 8.74979 20.9841L6.75033 20.9376C6.76087 20.4844 7.13237 20.1564 7.54694 20.1564V22.1564ZM8.74953 20.9936C8.78945 19.7749 9.28143 18.6377 10.1499 17.7714L8.73737 16.3554C7.50855 17.5813 6.80716 19.2015 6.7506 20.9281L8.74953 20.9936ZM10.1526 17.7686C10.5959 17.3229 11.1233 16.9696 11.7041 16.729L10.9389 14.8812C10.1137 15.2229 9.3645 15.7249 8.73464 16.3582L10.1526 17.7686ZM11.7041 16.729C12.2849 16.4885 12.9077 16.3655 13.5363 16.3673L13.5419 14.3673C12.6488 14.3648 11.764 14.5395 10.9389 14.8812L11.7041 16.729ZM13.5391 16.3673C14.8205 16.3673 16.0209 16.8639 16.9275 17.7705L18.3417 16.3563C17.0597 15.0742 15.3504 14.3673 13.5391 14.3673V16.3673ZM16.9275 17.7705C17.7941 18.6371 18.2867 19.7752 18.3288 20.9953L20.3276 20.9264C20.2681 19.2012 19.5673 17.5819 18.3417 16.3563L16.9275 17.7705ZM18.3285 20.9841C18.3441 21.6556 18.8984 22.1564 19.5313 22.1564V20.1564C19.9459 20.1564 20.3174 20.4844 20.3279 20.9376L18.3285 20.9841ZM19.5313 22.1564H20.9532V20.1564H19.5313V22.1564ZM20.9529 22.1564C21.1134 22.1564 21.2724 22.1243 21.4203 22.062L20.6439 20.2189C20.7419 20.1776 20.8472 20.1563 20.9535 20.1564L20.9529 22.1564ZM21.4203 22.062C21.5683 21.9996 21.7023 21.9083 21.8144 21.7934L20.3829 20.3968C20.4571 20.3206 20.5459 20.2602 20.6439 20.2189L21.4203 22.062ZM21.8144 21.7934C21.9266 21.6785 22.0145 21.5423 22.0732 21.3928L20.2115 20.6621C20.2503 20.5631 20.3086 20.4729 20.3829 20.3968L21.8144 21.7934ZM22.0732 21.3928C22.1319 21.2434 22.16 21.0837 22.156 20.9232L20.1566 20.9732C20.154 20.8668 20.1726 20.7611 20.2115 20.6621L22.0732 21.3928ZM22.156 20.9222C22.0985 18.7104 21.2063 16.6332 19.6335 15.0633L18.2206 16.4788C19.4306 17.6866 20.1125 19.2758 20.1567 20.9741L22.156 20.9222ZM13.5391 12.5392C12.935 12.5392 12.3729 12.3062 11.9498 11.8814L10.5327 13.2927C11.3335 14.0968 12.4066 14.5392 13.5391 14.5392V12.5392ZM11.9456 11.8771C11.7338 11.667 11.5666 11.4165 11.4538 11.1403L9.60228 11.8966C9.81665 12.4214 10.1345 12.8977 10.537 13.2969L11.9456 11.8771ZM11.4538 11.1403C11.341 10.8642 11.2849 10.5682 11.289 10.2699L9.28922 10.2424C9.28144 10.8093 9.38791 11.3719 9.60228 11.8966L11.4538 11.1403ZM11.2891 10.2653C11.2943 9.69092 11.5247 9.13251 11.927 8.71969L10.4946 7.32388C9.73401 8.10442 9.29915 9.15578 9.28917 10.247L11.2891 10.2653ZM11.9266 8.72011C12.3501 8.28603 12.9116 8.04617 13.5178 8.0391L13.4945 6.03924C12.3588 6.05248 11.2903 6.50833 10.495 7.32346L11.9266 8.72011ZM13.515 8.03913C14.1123 8.03384 14.6925 8.26723 15.117 8.68292L16.5164 7.25402C15.7119 6.46619 14.6214 6.02926 13.4973 6.03921L13.515 8.03913ZM15.1168 8.68274C15.5541 9.11121 15.7917 9.67879 15.7917 10.2892H17.7917C17.7917 9.14252 17.3386 8.05971 16.5165 7.2542L15.1168 8.68274ZM15.7917 10.2892C15.7917 10.8921 15.5595 11.4529 15.1324 11.8799L16.5466 13.2941C17.3485 12.4923 17.7917 11.4229 17.7917 10.2892H15.7917ZM15.1307 11.8816C14.9225 12.0908 14.6749 12.2566 14.4022 12.3695L15.1671 14.2174C15.6841 14.0034 16.1536 13.689 16.5483 13.2924L15.1307 11.8816ZM14.4022 12.3695C14.1295 12.4824 13.8372 12.54 13.542 12.5392L13.5362 14.5392C14.0958 14.5408 14.6501 14.4314 15.1671 14.2174L14.4022 12.3695ZM8.17347 10.8566C8.15382 10.6666 8.14323 10.4777 8.14323 10.2892H6.14323C6.14323 10.5526 6.15803 10.8105 6.18408 11.0624L8.17347 10.8566ZM8.14323 10.2892C8.14323 9.94874 8.17531 9.61622 8.23565 9.29083L6.26917 8.92618C6.18732 9.36759 6.14323 9.82217 6.14323 10.2892H8.14323ZM8.23402 9.29938C8.33919 8.7585 8.06142 8.20628 7.55195 7.9747L6.72435 9.79543C6.38245 9.64003 6.20117 9.2757 6.27079 8.91764L8.23402 9.29938ZM7.5474 7.97265C7.3065 7.8646 7.08857 7.71748 6.9017 7.53408L5.50077 8.96145C5.86234 9.31633 6.27917 9.59578 6.7289 9.79749L7.5474 7.97265ZM6.89735 7.52983C6.67401 7.31328 6.49826 7.05255 6.38132 6.76427L4.52801 7.51609C4.74944 8.06194 5.08222 8.55565 5.50512 8.9657L6.89735 7.52983ZM6.38132 6.76427C6.26438 6.476 6.20881 6.16652 6.21817 5.85557L4.21907 5.79543C4.20136 6.38422 4.30657 6.97024 4.52801 7.51609L6.38132 6.76427ZM6.21823 5.85352C6.23404 5.28955 6.46026 4.755 6.85513 4.35135L5.42546 2.95277C4.67776 3.71709 4.2489 4.73137 4.21901 5.79747L6.21823 5.85352ZM6.85584 4.35063C7.2927 3.90316 7.8733 3.66233 8.49537 3.66938L8.51803 1.66951C7.34753 1.65624 6.24219 2.1162 5.42476 2.95349L6.85584 4.35063ZM8.4973 3.6694C9.0574 3.67467 9.59882 3.89112 10.0071 4.2731L11.3735 2.81266C10.5986 2.08761 9.57593 1.67945 8.51611 1.66949L8.4973 3.6694ZM10.0067 4.27271C10.1469 4.4041 10.2676 4.54955 10.369 4.70606L12.0476 3.61877C11.8595 3.3284 11.6348 3.05744 11.3739 2.81306L10.0067 4.27271ZM10.368 4.70454C10.6705 5.1734 11.2554 5.37084 11.7772 5.18665L11.1116 3.30067C11.4608 3.17742 11.8476 3.30885 12.0486 3.62029L10.368 4.70454ZM11.7719 5.18852C12.1507 5.05724 12.5481 4.96574 12.9526 4.92338L12.7444 2.93426C12.179 2.99346 11.6319 3.12032 11.1169 3.2988L11.7719 5.18852ZM12.955 4.92313C13.8029 4.83229 14.2728 3.92682 13.9029 3.18707L12.114 4.0815C11.8711 3.59566 12.1785 2.99488 12.742 2.93451L12.955 4.92313ZM13.9009 3.18319C12.9139 1.23043 10.8972 -0.119548 8.56295 -0.15602L8.53171 1.84374C10.0975 1.8682 11.4526 2.77291 12.116 4.08538L13.9009 3.18319ZM8.56266 -0.156025C5.18993 -0.207726 2.38542 2.54911 2.38542 5.91944H4.38542C4.38542 3.66829 6.27308 1.80911 8.532 1.84374L8.56266 -0.156025ZM2.38542 5.91944C2.38542 7.82823 3.26534 9.53108 4.6399 10.6447L5.89889 9.09068C4.97307 8.34062 4.38542 7.19972 4.38542 5.91944H2.38542ZM4.8498 8.95998C3.93617 9.38231 3.09474 9.96544 2.366 10.6942L3.78022 12.1084C4.34132 11.5473 4.98778 11.0995 5.689 10.7754L4.8498 8.95998ZM2.36665 10.6935C0.793745 12.2636 -0.0984131 14.3408 -0.15585 16.555L1.84348 16.6069C1.8876 14.9059 2.56966 13.3167 3.77957 12.109L2.36665 10.6935ZM-0.155874 16.556C-0.159888 16.7165 -0.131735 16.8762 -0.0730711 17.0256L1.78866 16.2949C1.82751 16.3939 1.84616 16.4997 1.8435 16.606L-0.155874 16.556ZM-0.0730711 17.0256C-0.0144118 17.1751 0.07357 17.3113 0.1857 17.4262L1.61726 16.0296C1.69153 16.1057 1.74981 16.1959 1.78866 16.2949L-0.0730711 17.0256ZM0.1857 17.4262C0.297826 17.5411 0.431819 17.6325 0.57978 17.6948L1.35625 15.8517C1.45425 15.893 1.543 15.9534 1.61726 16.0296L0.1857 17.4262ZM0.57978 17.6948C0.727753 17.7571 0.886699 17.7892 1.04725 17.7892L1.04663 15.7892C1.15296 15.7891 1.25824 15.8104 1.35625 15.8517L0.57978 17.6948ZM1.04694 17.7892H2.47135V15.7892H1.04694V17.7892ZM2.47135 17.7892C3.10428 17.7892 3.65859 17.2884 3.67421 16.6169L1.67475 16.5704C1.68529 16.1172 2.05679 15.7892 2.47135 15.7892V17.7892ZM3.67394 16.6264C3.71386 15.4077 4.20584 14.2705 5.07428 13.4042L3.66178 11.9882C2.43296 13.2141 1.73158 14.8343 1.67501 16.5609L3.67394 16.6264ZM5.07514 13.4033C5.69532 12.7831 6.44996 12.3568 7.27071 12.1501L6.78215 10.2107C5.6072 10.5067 4.53371 11.1163 3.66093 11.9891L5.07514 13.4033ZM7.27481 12.149C7.84652 12.0025 8.24809 11.4518 8.17105 10.8354L6.1865 11.0835C6.13485 10.6703 6.40439 10.3075 6.77806 10.2117L7.27481 12.149Z" fill="#00E28D" mask="url(#path-1-inside-1_1_1028)"/>
</svg>
