<svg width="24" height="24" viewBox="0 0 24 24" fill="none" xmlns="http://www.w3.org/2000/svg">
<path d="M24 5.64168C24 4.14541 23.5555 2.71043 22.7644 1.65241C21.9732 0.594389 20.9001 0 19.7812 0L4.21875 0C3.09987 0 2.02681 0.594389 1.23564 1.65241C0.444474 2.71043 0 4.14541 0 5.64168C0 7.13794 0.444474 8.57293 1.23564 9.63095C2.02681 10.689 3.09987 11.2834 4.21875 11.2834H5.49911L3.62411 15.451C3.04762 16.7335 2.87572 18.2698 3.14622 19.7218C3.41672 21.1738 4.10748 22.4226 5.06652 23.1936C6.02556 23.9645 7.17433 24.1944 8.26012 23.8326C9.3459 23.4709 10.2798 22.5472 10.8562 21.2646L12 18.7196L13.1451 21.2646C13.4305 21.8997 13.8067 22.4533 14.2522 22.8939C14.6976 23.3345 15.2036 23.6535 15.7412 23.8326C16.2788 24.0118 16.8376 24.0475 17.3856 23.9379C17.9335 23.8282 18.46 23.5753 18.9348 23.1936C19.4097 22.8118 19.8237 22.3088 20.1532 21.7131C20.4827 21.1174 20.7212 20.4408 20.8551 19.7218C20.9891 19.0028 21.0158 18.2556 20.9338 17.5229C20.8518 16.7901 20.6627 16.0861 20.3772 15.451L18.5022 11.2834H19.7812C20.9001 11.2834 21.9732 10.689 22.7644 9.63095C23.5555 8.57293 24 7.13794 24 5.64168Z" fill="#1C144A"/>
</svg>
