<svg width="201" height="42" viewBox="0 0 201 42" fill="none" xmlns="http://www.w3.org/2000/svg">
<g clip-path="url(#clip0_1_1538)">
<rect x="0.5" width="200" height="42" fill="#1C144A"/>
<path d="M200.5 3.90513C200.5 3.3924 200.411 2.88464 200.238 2.41086C200.066 1.93708 199.812 1.50656 199.492 1.14391C199.173 0.781261 198.793 0.493578 198.375 0.297301C197.957 0.101024 197.509 -7.33906e-08 197.057 0L184.346 0C183.447 0.0235873 182.591 0.445266 181.962 1.17485C181.333 1.90444 180.981 2.88402 180.981 3.90409C180.981 4.92415 181.333 5.90373 181.962 6.63332C182.591 7.36291 183.447 7.78458 184.346 7.80817H185.391L183.867 10.6921C183.614 11.1313 183.441 11.6239 183.36 12.1404C183.278 12.657 183.289 13.1869 183.392 13.6985C183.495 14.21 183.689 14.6928 183.96 15.1178C184.232 15.5428 184.576 15.9014 184.973 16.1721C185.369 16.4428 185.81 16.6201 186.268 16.6934C186.727 16.7666 187.193 16.7343 187.64 16.5984C188.087 16.4625 188.506 16.2258 188.87 15.9024C189.235 15.579 189.538 15.1756 189.762 14.7163L190.698 12.9538L191.632 14.7163C191.856 15.1756 192.159 15.579 192.524 15.9024C192.888 16.2258 193.307 16.4625 193.754 16.5984C194.201 16.7343 194.668 16.7666 195.126 16.6934C195.584 16.6201 196.025 16.4428 196.422 16.1721C196.818 15.9014 197.162 15.5428 197.434 15.1178C197.705 14.6928 197.899 14.21 198.002 13.6985C198.105 13.1869 198.116 12.657 198.034 12.1404C197.953 11.6239 197.78 11.1313 197.527 10.6921L195.998 7.80817H197.057C197.97 7.80817 198.846 7.39696 199.492 6.665C200.137 5.93304 200.5 4.94028 200.5 3.90513ZM194.421 3.90513C194.421 3.35167 194.566 2.81065 194.837 2.35046C195.108 1.89028 195.494 1.53161 195.945 1.31981C196.396 1.10801 196.892 1.0526 197.371 1.16057C197.85 1.26854 198.29 1.53506 198.635 1.92641C198.98 2.31777 199.215 2.81638 199.31 3.3592C199.406 3.90203 199.357 4.46468 199.17 4.976C198.983 5.48733 198.667 5.92437 198.261 6.23186C197.855 6.53934 197.378 6.70346 196.889 6.70346C196.565 6.70346 196.244 6.63108 195.945 6.49045C195.645 6.34982 195.373 6.1437 195.144 5.88385C194.915 5.624 194.733 5.31551 194.609 4.976C194.485 4.6365 194.421 4.27261 194.421 3.90513Z" fill="#00F096"/>
<path d="M21.2869 18.6277C20.5408 17.9781 19.6942 17.4923 18.7908 17.1951C16.805 16.5451 14.6975 16.5451 12.7117 17.1951C11.8073 17.4962 10.959 17.9817 10.2082 18.6277C9.48973 19.2549 8.90956 20.0628 8.51343 20.9875C8.08771 21.9971 7.87636 23.1056 7.89631 24.2244V35.0188H12.8591V25.517C12.8591 23.0946 13.8243 21.8834 15.7549 21.8834C16.6797 21.8834 17.3889 22.1806 17.8826 22.7751C18.3763 23.3696 18.6219 24.2835 18.6194 25.517V35.0188H23.5822V24.2244C23.6041 23.1065 23.396 21.9983 22.9743 20.9875C22.5778 20.0654 22.0006 19.2583 21.2869 18.6277Z" fill="white"/>
<path d="M57.6212 18.5859C56.9621 17.9741 56.2071 17.5086 55.3959 17.2139C54.4274 16.86 53.4143 16.6886 52.3969 16.7065C51.2601 16.6956 50.1316 16.9266 49.0699 17.3873C48.0754 17.8189 47.1644 18.4658 46.3878 19.2918C45.6156 20.1292 45.0068 21.1408 44.6009 22.2614C44.16 23.48 43.9395 24.7867 43.9525 26.1038C43.9322 27.4677 44.1526 28.8224 44.6009 30.0883C44.9958 31.1935 45.5926 32.1914 46.352 33.0164C47.1115 33.8413 48.0164 34.4747 49.0073 34.8747C50.0451 35.2986 51.1409 35.5107 52.244 35.5012C53.0955 35.5072 53.946 35.4311 54.7861 35.2736C55.4716 35.1456 56.1486 34.9649 56.8125 34.7327C57.3023 34.5614 57.7812 34.3521 58.2457 34.1062C58.6252 33.8974 58.8972 33.7345 59.0617 33.6176L57.3357 29.7041C57.2121 29.805 57.0778 29.8878 56.9359 29.9505C56.6553 30.0889 56.3666 30.2054 56.0719 30.2992C55.7238 30.4162 55.3111 30.5269 54.8395 30.6313C54.3422 30.7382 53.837 30.7907 53.3308 30.7879C52.7293 30.8002 52.1287 30.7301 51.5421 30.5791C51.112 30.4691 50.7007 30.2801 50.3244 30.0194C50.0406 29.8225 49.7909 29.5684 49.5876 29.2697C49.4232 29.0287 49.312 28.7466 49.2634 28.4469H50.3429C51.8545 28.4759 53.3653 28.3473 54.8561 28.0627C56.0388 27.8079 56.974 27.4411 57.6617 26.9621C58.2873 26.5624 58.7881 25.9524 59.0949 25.2163C59.3701 24.4818 59.5063 23.69 59.4946 22.892C59.4924 22.0951 59.3292 21.3093 59.0175 20.5949C58.6829 19.8207 58.2069 19.1359 57.6212 18.5859ZM54.5853 23.554C54.5043 23.7879 54.2783 23.9967 53.9074 24.1805C53.3629 24.417 52.7929 24.5701 52.2126 24.6358C51.1485 24.77 50.0779 24.8279 49.0073 24.8091C49.0288 24.3383 49.112 23.8738 49.2542 23.4308C49.3935 22.9857 49.6081 22.5757 49.886 22.2238C50.1774 21.864 50.5286 21.573 50.9195 21.3676C51.3746 21.1375 51.8691 21.0248 52.3674 21.0376C53.1472 21.0376 53.7324 21.2179 54.1229 21.5785C54.3011 21.7247 54.4468 21.9159 54.5485 22.137C54.6502 22.3581 54.705 22.603 54.7087 22.8524C54.7083 23.0931 54.6663 23.3315 54.5853 23.554Z" fill="white"/>
<path d="M75.2341 19.2918C74.4536 18.4633 73.5373 17.8163 72.5372 17.3872C71.4592 16.9254 70.3148 16.6946 69.1624 16.7064C67.7758 16.6854 66.4007 16.9949 65.1263 17.6149C63.9449 18.1934 62.9152 19.1076 62.1365 20.2691C61.6073 21.1003 61.2205 22.0368 60.9962 23.0298C60.7102 24.2964 60.5751 25.6006 60.5946 26.9078V42H65.5279V33.58C66.0241 34.0956 66.5917 34.5154 67.2079 34.8225C67.9583 35.229 68.9088 35.4323 70.0596 35.4323C71.0751 35.4393 72.0815 35.2134 73.018 34.7682C73.9297 34.3369 74.7531 33.6971 75.4368 32.8887C76.1433 32.0394 76.6982 31.043 77.0708 29.9547C77.4845 28.7259 77.6877 27.4189 77.6695 26.1038C77.6834 24.7866 77.4628 23.4797 77.021 22.2613C76.6158 21.1403 76.0069 20.1286 75.2341 19.2918ZM71.583 29.1611C71.0772 29.7419 70.4285 30.136 69.7218 30.2918C69.0151 30.4475 68.2833 30.3577 67.6224 30.034C67.1981 29.8191 66.8156 29.511 66.4969 29.1277C66.1737 28.7331 65.9232 28.2696 65.76 27.764C65.5819 27.2224 65.4926 26.6484 65.4966 26.0704C65.4966 24.7659 65.8306 23.7406 66.4987 22.9943C66.8341 22.6235 67.2322 22.3334 67.6691 22.1414C68.106 21.9494 68.5726 21.8595 69.0409 21.8771C69.5121 21.8601 69.9813 21.9538 70.4191 22.1521C70.8569 22.3505 71.2538 22.6493 71.5849 23.0298C72.2517 23.7983 72.5851 24.8119 72.5851 26.0704C72.5851 27.329 72.2511 28.3592 71.583 29.1611Z" fill="white"/>
<path d="M92.5391 18.5859C91.8775 17.9711 91.1193 17.5035 90.3046 17.2076C89.3387 16.8573 88.3288 16.688 87.3148 16.7064C86.1774 16.6956 85.0483 16.9265 83.986 17.3872C82.9918 17.8184 82.0814 18.4654 81.3057 19.2918C80.5362 20.1296 79.9306 21.1413 79.528 22.2613C79.0862 23.4797 78.8657 24.7866 78.8796 26.1038C78.8582 27.4678 79.0787 28.8228 79.528 30.0883C79.9212 31.1929 80.5163 32.1906 81.2742 33.0156C82.0322 33.8406 82.9357 34.4742 83.9252 34.8747C84.9624 35.2984 86.0576 35.5105 87.16 35.5012C88.0122 35.5071 88.8633 35.431 89.704 35.2736C90.3895 35.1453 91.0665 34.9646 91.7304 34.7327C92.2198 34.5618 92.698 34.3524 93.1617 34.1062C93.5431 33.8974 93.8139 33.7345 93.9797 33.6175L92.2388 29.702C92.1153 29.8029 91.981 29.8857 91.8391 29.9484C91.5584 30.0868 91.2698 30.2033 90.9751 30.2971C90.6251 30.4141 90.2143 30.5248 89.7427 30.6292C89.2448 30.7362 88.739 30.7886 88.2322 30.7858C87.6313 30.7981 87.0313 30.728 86.4453 30.577C86.0152 30.467 85.6039 30.2779 85.2276 30.0173C84.9442 29.8197 84.6946 29.5658 84.4908 29.2676C84.3269 29.0265 84.2163 28.7443 84.1684 28.4448H85.2461C86.7583 28.4738 88.2697 28.3452 89.7611 28.0606C90.9426 27.8058 91.8778 27.4389 92.5667 26.96C93.1924 26.5603 93.6931 25.9503 93.9999 25.2142C94.2742 24.4794 94.4104 23.6878 94.3997 22.8899C94.3963 22.0931 94.2331 21.3076 93.9226 20.5928C93.5914 19.8207 93.12 19.1368 92.5391 18.5859ZM89.5032 23.5477C89.4203 23.7816 89.1956 23.9905 88.8253 24.1742C88.2807 24.4104 87.7108 24.5635 87.1306 24.6295C86.0664 24.7637 84.9958 24.8216 83.9252 24.8028C83.9467 24.332 84.0299 23.8675 84.1721 23.4245C84.3107 22.979 84.5254 22.5689 84.8039 22.2175C85.0946 21.8577 85.4452 21.5667 85.8355 21.3613C86.2907 21.1312 86.7852 21.0185 87.2835 21.0313C88.0645 21.0313 88.6503 21.2116 89.0409 21.5722C89.2191 21.7184 89.3647 21.9096 89.4664 22.1307C89.5681 22.3518 89.623 22.5967 89.6267 22.8461C89.626 23.0888 89.5841 23.3292 89.5032 23.554V23.5477Z" fill="white"/>
<path d="M108.818 18.6277C108.072 17.9781 107.226 17.4923 106.322 17.1951C104.336 16.5451 102.229 16.5451 100.243 17.1951C99.3409 17.4976 98.4945 17.983 97.7451 18.6277C97.0271 19.2555 96.4471 20.0632 96.0503 20.9875C95.621 21.9962 95.4052 23.1045 95.4203 24.2244V35.0188H100.381V25.517C100.381 23.0946 101.347 21.8834 103.279 21.8834C104.204 21.8834 104.912 22.1806 105.405 22.7751C105.897 23.3696 106.143 24.2835 106.142 25.517V35.0188H111.102V24.2244C111.121 23.108 110.911 22.0019 110.487 20.9938C110.097 20.0715 109.526 19.2624 108.818 18.6277Z" fill="white"/>
<path d="M130.029 9.79001L130.005 9.77957C129.938 9.67544 129.865 9.57638 129.787 9.48303C129.532 9.18909 129.227 8.95742 128.89 8.80227C128.553 8.64713 128.191 8.57179 127.827 8.58088C127.466 8.57063 127.107 8.64551 126.772 8.8008C126.438 8.95609 126.135 9.1884 125.884 9.48303C125.5 9.91543 125.243 10.4709 125.147 11.0743C125.111 11.2955 125.093 11.5198 125.094 11.7447V18.6361C124.593 18.1174 124.027 17.6872 123.414 17.3601C122.666 16.9244 121.717 16.7065 120.567 16.7065C119.563 16.7001 118.568 16.926 117.644 17.3706C116.719 17.8151 115.884 18.4688 115.19 19.2918C114.481 20.1456 113.926 21.1488 113.556 22.2447C113.144 23.4767 112.94 24.7861 112.956 26.1038C112.944 27.422 113.165 28.7293 113.608 29.9484C114.014 31.0695 114.623 32.0813 115.397 32.918C116.177 33.7474 117.093 34.3945 118.093 34.8225C119.169 35.2831 120.311 35.5132 121.461 35.5012C122.848 35.5223 124.224 35.2128 125.499 34.5928C126.681 34.0141 127.711 33.0991 128.489 31.9365C129.02 31.1073 129.409 30.1722 129.634 29.1799C129.92 27.9133 130.054 26.609 130.034 25.3019V13.574V9.81507L130.029 9.79001ZM124.134 29.2112C123.798 29.5826 123.4 29.8732 122.963 30.0656C122.526 30.2579 122.059 30.3481 121.59 30.3306C121.119 30.3476 120.65 30.254 120.212 30.0556C119.775 29.8572 119.378 29.5584 119.048 29.1778C118.38 28.4079 118.046 27.3944 118.046 26.1373C118.046 24.8801 118.38 23.8492 119.048 23.0445C119.372 22.6504 119.766 22.3391 120.204 22.1313C120.643 21.9236 121.115 21.8241 121.59 21.8395C122.078 21.8334 122.562 21.9466 123.008 22.1716C123.432 22.3878 123.815 22.6964 124.134 23.08C124.456 23.4753 124.706 23.9387 124.871 24.4436C125.048 24.9854 125.137 25.5594 125.132 26.1373C125.13 27.4431 124.795 28.4685 124.128 29.2133L124.134 29.2112Z" fill="white"/>
<path d="M145.145 18.5859C144.484 17.9711 143.726 17.5035 142.911 17.2076C141.945 16.8573 140.935 16.688 139.921 16.7064C138.784 16.6956 137.655 16.9265 136.592 17.3872C135.598 17.819 134.688 18.4658 133.912 19.2918C133.139 20.1286 132.53 21.1403 132.125 22.2613C131.683 23.4797 131.463 24.7866 131.477 26.1038C131.455 27.4678 131.676 28.8228 132.125 30.0883C132.52 31.1935 133.117 32.1914 133.876 33.0163C134.636 33.8413 135.541 34.4746 136.531 34.8747C137.569 35.2983 138.664 35.5104 139.766 35.5012C140.618 35.5072 141.468 35.431 142.308 35.2736C142.994 35.1453 143.671 34.9646 144.335 34.7327C144.825 34.5614 145.304 34.352 145.768 34.1062C146.148 33.8974 146.418 33.7345 146.584 33.6175L144.858 29.7041C144.734 29.805 144.6 29.8878 144.458 29.9505C144.178 30.0889 143.889 30.2054 143.594 30.2992C143.244 30.4162 142.833 30.5268 142.362 30.6313C141.864 30.7383 141.358 30.7907 140.851 30.7879C140.25 30.8001 139.65 30.73 139.064 30.5791C138.634 30.4691 138.223 30.28 137.847 30.0194C137.563 29.8225 137.313 29.5684 137.11 29.2697C136.945 29.0293 136.833 28.7469 136.786 28.4469H137.863C139.376 28.4759 140.887 28.3473 142.378 28.0626C143.561 27.8079 144.496 27.441 145.184 26.9621C145.81 26.5624 146.31 25.9524 146.617 25.2163C146.892 24.4817 147.029 23.6899 147.017 22.892C147.015 22.095 146.852 21.3093 146.54 20.5949C146.206 19.8208 145.73 19.1361 145.145 18.5859ZM142.109 23.5477C142.027 23.7816 141.802 23.9905 141.432 24.1742C140.887 24.4104 140.317 24.5635 139.737 24.6295C138.673 24.7637 137.602 24.8216 136.531 24.8028C136.553 24.332 136.636 23.8675 136.778 23.4245C136.917 22.979 137.132 22.5689 137.41 22.2175C137.701 21.8577 138.051 21.5667 138.442 21.3613C138.897 21.1312 139.391 21.0185 139.89 21.0313C140.671 21.0313 141.257 21.2116 141.647 21.5722C141.825 21.7184 141.971 21.9096 142.073 22.1307C142.174 22.3518 142.229 22.5967 142.233 22.8461C142.233 23.0889 142.191 23.3295 142.109 23.554V23.5477Z" fill="white"/>
<path d="M161.504 25.3019C160.981 24.8724 160.397 24.5468 159.778 24.3391C159.114 24.1158 158.436 23.9469 157.751 23.8338L154.96 23.389C154.456 23.3175 153.961 23.1773 153.487 22.9713C153.337 22.9088 153.209 22.7943 153.121 22.6443C153.033 22.4942 152.988 22.3163 152.995 22.136C152.998 21.9353 153.05 21.7396 153.145 21.5702C153.24 21.4008 153.374 21.2642 153.533 21.1754C153.891 20.9303 154.534 20.8078 155.46 20.8078C156.201 20.7987 156.941 20.8687 157.67 21.0166C158.231 21.1324 158.785 21.2901 159.328 21.4886C159.712 21.625 160.082 21.8063 160.433 22.0295C160.612 22.1407 160.782 22.2693 160.942 22.4137C160.982 22.3908 161.08 22.3198 161.235 22.2049C161.415 22.0628 161.581 21.8982 161.728 21.7141C161.912 21.4891 162.067 21.2369 162.191 20.9644C162.327 20.6555 162.395 20.3137 162.39 19.9683C162.402 19.5209 162.277 19.0826 162.036 18.7279C161.779 18.3714 161.459 18.0798 161.097 17.8717C160.333 17.4452 159.517 17.1509 158.676 16.9987C157.57 16.7932 156.451 16.6954 155.331 16.7064C154.217 16.6821 153.106 16.8411 152.033 17.1783C151.206 17.4362 150.431 17.8754 149.753 18.471C149.183 18.9794 148.733 19.6394 148.443 20.3922C148.162 21.1495 148.02 21.9639 148.026 22.7854C147.998 23.6691 148.168 24.5464 148.52 25.3353C148.841 26.0076 149.301 26.5811 149.861 27.0059C150.46 27.4547 151.121 27.7852 151.818 27.9832C152.58 28.2059 153.354 28.3719 154.135 28.4803L155.738 28.6891C156.311 28.7552 156.875 28.9025 157.416 29.1276C157.585 29.2013 157.728 29.3343 157.825 29.5072C157.922 29.6801 157.968 29.8837 157.956 30.0882C157.956 30.531 157.74 30.8379 157.309 31.0134C156.878 31.1888 156.241 31.2744 155.399 31.2744C154.692 31.2782 153.985 31.2139 153.288 31.0823C152.684 30.9717 152.087 30.8204 151.499 30.6291C151.034 30.4802 150.579 30.2939 150.138 30.0715C149.852 29.9332 149.579 29.764 149.321 29.5662L147.564 33.204C147.846 33.4266 148.14 33.6303 148.443 33.8138C148.968 34.132 149.521 34.3895 150.092 34.5823C150.884 34.8593 151.692 35.0756 152.51 35.2297C153.575 35.4247 154.653 35.5155 155.732 35.5011C158.053 35.5011 159.871 34.9533 161.187 33.8576C162.502 32.762 163.16 31.2375 163.162 29.2842C163.184 28.463 163.031 27.6478 162.716 26.9078C162.428 26.2723 162.013 25.7223 161.504 25.3019Z" fill="white"/>
<path d="M3.24297 9.26576C2.87916 9.25529 2.5174 9.33063 2.18062 9.48701C1.84385 9.64339 1.53941 9.87739 1.28661 10.1742C1.02936 10.4672 0.827056 10.8163 0.691877 11.2003C0.556699 11.5843 0.491436 11.9953 0.500016 12.4087C0.491965 12.8195 0.557412 13.2279 0.692408 13.6093C0.827404 13.9907 1.02915 14.3371 1.28548 14.6277C1.54181 14.9183 1.84741 15.147 2.18384 15.3C2.52027 15.4531 2.88056 15.5273 3.24297 15.5181C3.60769 15.5278 3.97039 15.454 4.30939 15.3012C4.64838 15.1483 4.9567 14.9195 5.21591 14.6285C5.47925 14.3423 5.68727 13.9972 5.82679 13.6151C5.96632 13.2329 6.03431 12.8221 6.02645 12.4087C6.03451 11.9939 5.96757 11.5817 5.82976 11.1974C5.69194 10.8131 5.48617 10.4649 5.22512 10.1742C4.96726 9.87688 4.65825 9.64284 4.31728 9.48657C3.9763 9.3303 3.61064 9.25514 3.24297 9.26576Z" fill="#00F096"/>
<path d="M3.51926 16.531C3.15545 16.5205 2.79369 16.5959 2.45691 16.7522C2.12014 16.9086 1.8157 17.1426 1.5629 17.4394C1.2996 17.7416 1.09503 18.103 0.962365 18.5003C0.830761 18.8723 0.768057 19.2711 0.77815 19.6718V35.0083H5.73905V17.7777C5.6636 17.6588 5.58112 17.5457 5.4922 17.4394C5.23548 17.1433 4.92798 16.91 4.58867 16.7537C4.24935 16.5975 3.88541 16.5217 3.51926 16.531Z" fill="white"/>
<path d="M42.2595 9.45375C42.0041 9.16155 41.6985 8.9317 41.3618 8.77835C41.025 8.625 40.6641 8.55139 40.3013 8.56205C39.9399 8.55166 39.5806 8.62649 39.246 8.78179C38.9115 8.93708 38.609 9.16946 38.3579 9.4642C37.9648 9.91214 37.7068 10.4896 37.621 11.114C37.6081 11.1975 37.6081 11.2956 37.6007 11.3875C37.5934 11.4794 37.5768 11.5817 37.5768 11.6841C37.5768 11.6841 37.5768 11.6945 37.5768 11.6987C37.5768 11.7029 37.5768 11.7363 37.5768 11.7551V18.6465C37.0766 18.1278 36.5102 17.6976 35.8968 17.3705C35.1415 16.9278 34.1903 16.7064 33.0433 16.7064C32.039 16.7 31.0441 16.926 30.1195 17.3705C29.1949 17.8151 28.3601 18.4688 27.6661 19.2918C26.9565 20.1456 26.4014 21.1488 26.0321 22.2446C25.6194 23.4767 25.4156 24.786 25.4315 26.1038C25.4178 27.4215 25.6377 28.7289 26.0781 29.9484C26.4848 31.0691 27.0941 32.0807 27.8668 32.918C28.6468 33.7473 29.5632 34.3945 30.5637 34.8225C31.6419 35.2838 32.7862 35.5139 33.9386 35.5012C35.3252 35.522 36.7002 35.2125 37.9747 34.5928C39.1565 34.0141 40.1864 33.0991 40.9645 31.9365C41.494 31.1062 41.8808 30.1703 42.1048 29.1778C42.3888 27.9117 42.522 26.6081 42.5009 25.3019V9.78997C42.4268 9.67221 42.3462 9.55992 42.2595 9.45375ZM36.606 29.2133C36.2707 29.5845 35.8726 29.875 35.4358 30.0674C34.9989 30.2597 34.5322 30.35 34.0638 30.3326C33.5926 30.3497 33.1233 30.2561 32.6855 30.0578C32.2477 29.8594 31.8508 29.5605 31.5198 29.1799C30.853 28.41 30.5189 27.3965 30.5177 26.1393C30.5165 24.8822 30.8505 23.8512 31.5198 23.0465C31.8441 22.6524 32.2386 22.3411 32.6773 22.1333C33.116 21.9256 33.5886 21.8261 34.0638 21.8416C34.5516 21.8357 35.0347 21.9489 35.4804 22.1736C35.9048 22.3893 36.2873 22.698 36.606 23.082C36.9289 23.4768 37.1793 23.9403 37.3428 24.4457C37.521 24.9873 37.6102 25.5613 37.6063 26.1393C37.6063 27.4438 37.2728 28.4685 36.606 29.2133Z" fill="white"/>
<path d="M180.9 19.1289C180.511 19.5911 180.027 20.1097 179.446 20.6847C178.865 21.2597 178.259 21.8346 177.628 22.4096L176.653 23.2909L175.81 24.0469C175.224 24.5703 174.746 25.0061 174.376 25.3541C175.741 26.7672 177.033 28.2684 178.245 29.8503C179.51 31.4883 180.687 33.2123 181.767 35.0125H175.64C175.229 34.3847 174.777 33.7429 174.284 33.0871C173.792 32.4314 173.288 31.8007 172.774 31.1951C172.26 30.5853 171.758 30.0076 171.267 29.4618C170.775 28.9147 170.322 28.4051 169.911 27.9395V35.0125H164.946V11.7446C164.932 11.2944 165.015 10.8471 165.188 10.4415C165.32 10.0838 165.512 9.75779 165.751 9.48091C166.003 9.18612 166.306 8.95373 166.641 8.79844C166.976 8.64315 167.335 8.56835 167.697 8.57877C168.127 8.56084 168.554 8.66466 168.94 8.88086C169.326 9.09707 169.659 9.41884 169.907 9.81713V10.074V23.1176C170.276 22.7709 170.672 22.4034 171.094 22.0212C171.516 21.639 171.926 21.2569 172.326 20.8747L173.013 20.2211L174.286 19.0036L174.345 18.9451C174.655 18.6423 174.925 18.3792 175.163 18.1578L175.198 18.1286L175.935 17.4207V17.4436C176.276 17.105 176.683 16.8631 177.123 16.7378C177.389 16.656 177.664 16.6132 177.939 16.6104C178.349 16.5989 178.757 16.6829 179.137 16.8571C179.517 17.0313 179.862 17.292 180.15 17.6232C180.513 18.0407 180.78 18.5537 180.925 19.1164L180.9 19.1289Z" fill="white"/>
</g>
<rect x="1" y="0.5" width="199" height="41" stroke="#1C144A"/>
<defs>
<clipPath id="clip0_1_1538">
<rect x="0.5" width="200" height="42" fill="white"/>
</clipPath>
</defs>
</svg>
