<svg width="25" height="24" viewBox="0 0 25 24" fill="none" xmlns="http://www.w3.org/2000/svg">
<path d="M20.5475 16.4733C19.3437 15 18.4939 14.25 18.4939 10.1883C18.4939 6.46875 16.5945 5.14359 15.0312 4.5C14.8236 4.41469 14.6281 4.21875 14.5648 4.00547C14.2906 3.07219 13.5219 2.25 12.5 2.25C11.4781 2.25 10.7089 3.07266 10.4375 4.00641C10.3742 4.22203 10.1787 4.41469 9.97108 4.5C8.40593 5.14453 6.50842 6.465 6.50842 10.1883C6.50608 14.25 5.65624 15 4.45249 16.4733C3.95374 17.0836 4.39061 18 5.26296 18H19.7417C20.6094 18 21.0434 17.0808 20.5475 16.4733Z" stroke="#1C144A" stroke-width="2.25" stroke-linecap="round" stroke-linejoin="round"/>
<path d="M15.5 18V18.75C15.5 19.5456 15.1839 20.3087 14.6213 20.8713C14.0587 21.4339 13.2956 21.75 12.5 21.75C11.7044 21.75 10.9413 21.4339 10.3787 20.8713C9.81607 20.3087 9.5 19.5456 9.5 18.75V18" stroke="#1C144A" stroke-width="2.25" stroke-linecap="round" stroke-linejoin="round"/>
</svg>
