<svg width="14" height="15" viewBox="0 0 14 15" fill="none" xmlns="http://www.w3.org/2000/svg">
<path d="M13.0544 13.2851L10.0581 10.0034C10.7794 8.95161 11.1688 7.67135 11.1675 6.35586C11.1675 2.99571 8.67151 0.261963 5.60354 0.261963C2.53558 0.261963 0.0395508 2.99571 0.0395508 6.35586C0.0395508 9.71601 2.53558 12.4498 5.60354 12.4498C6.80464 12.4512 7.97357 12.0247 8.93391 11.2346L11.9302 14.5163C12.0819 14.6648 12.2797 14.744 12.4831 14.7378C12.6864 14.7316 12.8799 14.6403 13.0238 14.4828C13.1676 14.3252 13.2509 14.1133 13.2566 13.8906C13.2623 13.6679 13.1899 13.4512 13.0544 13.2851ZM1.62926 6.35586C1.62926 5.49496 1.86235 4.65339 2.29905 3.93758C2.73575 3.22177 3.35645 2.66386 4.08265 2.33441C4.80886 2.00496 5.60795 1.91876 6.37889 2.08671C7.14982 2.25467 7.85797 2.66923 8.41378 3.27798C8.9696 3.88672 9.34811 4.66232 9.50146 5.50667C9.65481 6.35103 9.57611 7.22623 9.2753 8.0216C8.9745 8.81697 8.4651 9.49678 7.81154 9.97507C7.15797 10.4534 6.38958 10.7086 5.60354 10.7086C4.54989 10.7073 3.53975 10.2482 2.7947 9.43221C2.04965 8.61621 1.63053 7.50987 1.62926 6.35586Z" fill="#CBCBD4"/>
</svg>
