<svg width="21" height="20" viewBox="0 0 21 20" fill="none" xmlns="http://www.w3.org/2000/svg">
<path d="M12.32 20H8.68001C8.45194 20 8.23071 19.9221 8.05301 19.7792C7.87531 19.6362 7.75181 19.4368 7.70301 19.214L7.296 17.33C6.75306 17.0921 6.23824 16.7946 5.76101 16.443L3.92401 17.028C3.70657 17.0973 3.47196 17.0902 3.25913 17.0078C3.0463 16.9254 2.86806 16.7727 2.75401 16.575L0.930006 13.424C0.817152 13.2261 0.774789 12.9958 0.809849 12.7708C0.844909 12.5457 0.955315 12.3392 1.12301 12.185L2.54801 10.885C2.4832 10.2961 2.4832 9.70189 2.54801 9.113L1.12301 7.816C0.955078 7.66177 0.844521 7.45507 0.809455 7.22978C0.77439 7.00449 0.816896 6.77397 0.930006 6.576L2.75001 3.423C2.86406 3.22532 3.0423 3.07259 3.25513 2.99019C3.46796 2.90778 3.70257 2.90066 3.92001 2.97L5.75701 3.555C6.00101 3.375 6.25501 3.207 6.51701 3.055C6.77001 2.913 7.03 2.784 7.296 2.669L7.70401 0.787C7.75258 0.564198 7.87584 0.364688 8.05335 0.221549C8.23087 0.0784098 8.45197 0.000239966 8.68001 0H12.32C12.548 0.000239966 12.7691 0.0784098 12.9467 0.221549C13.1242 0.364688 13.2474 0.564198 13.296 0.787L13.708 2.67C14.2506 2.9079 14.7651 3.20539 15.242 3.557L17.08 2.972C17.2973 2.90292 17.5317 2.91017 17.7443 2.99256C17.9569 3.07495 18.135 3.22753 18.249 3.425L20.069 6.578C20.301 6.985 20.221 7.5 19.876 7.817L18.451 9.117C18.5158 9.70589 18.5158 10.3001 18.451 10.889L19.876 12.189C20.221 12.507 20.301 13.021 20.069 13.428L18.249 16.581C18.135 16.7787 17.9567 16.9314 17.7439 17.0138C17.5311 17.0962 17.2964 17.1033 17.079 17.034L15.242 16.449C14.7651 16.8003 14.2506 17.0975 13.708 17.335L13.296 19.214C13.2472 19.4366 13.1239 19.6359 12.9464 19.7788C12.7689 19.9218 12.5479 19.9998 12.32 20ZM6.12001 14.229L6.94 14.829C7.12501 14.965 7.31701 15.09 7.51701 15.204C7.70501 15.313 7.89701 15.411 8.096 15.5L9.02901 15.909L9.48601 18H11.516L11.973 15.908L12.906 15.499C13.313 15.319 13.7 15.096 14.059 14.833L14.879 14.233L16.921 14.883L17.936 13.125L16.353 11.682L16.465 10.67C16.515 10.227 16.515 9.78 16.465 9.338L16.353 8.326L17.937 6.88L16.921 5.121L14.88 5.771L14.059 5.171C13.6998 4.90669 13.3133 4.68173 12.906 4.5L11.973 4.091L11.516 2H9.48601L9.02601 4.092L8.096 4.5C7.68819 4.67861 7.30148 4.90198 6.94301 5.166L6.12201 5.766L4.08201 5.116L3.06501 6.88L4.64801 8.321L4.53601 9.334C4.48601 9.777 4.48601 10.224 4.53601 10.666L4.64801 11.678L3.06501 13.121L4.08001 14.879L6.12001 14.229ZM10.496 14C9.43514 14 8.41772 13.5786 7.66758 12.8284C6.91743 12.0783 6.49601 11.0609 6.49601 10C6.49601 8.93913 6.91743 7.92172 7.66758 7.17157C8.41772 6.42143 9.43514 6 10.496 6C11.5569 6 12.5743 6.42143 13.3244 7.17157C14.0746 7.92172 14.496 8.93913 14.496 10C14.496 11.0609 14.0746 12.0783 13.3244 12.8284C12.5743 13.5786 11.5569 14 10.496 14ZM10.496 8C10.1044 8.0004 9.72145 8.11577 9.39479 8.33181C9.06812 8.54785 8.81207 8.85505 8.65841 9.21528C8.50474 9.57552 8.46023 9.97295 8.53038 10.3583C8.60054 10.7436 8.78227 11.0998 9.05305 11.3828C9.32382 11.6657 9.67171 11.863 10.0536 11.95C10.4354 12.037 10.8344 12.01 11.2011 11.8724C11.5677 11.7347 11.8859 11.4924 12.1161 11.1756C12.3463 10.8587 12.4784 10.4812 12.496 10.09V10.49V10C12.496 9.46957 12.2853 8.96086 11.9102 8.58579C11.5351 8.21071 11.0264 8 10.496 8Z" fill="#1C144A"/>
</svg>
