<svg width="22" height="20" viewBox="0 0 22 20" fill="none" xmlns="http://www.w3.org/2000/svg">
<path d="M15.4362 19.4088C15.9075 19.8638 16.655 19.8638 17.1262 19.4088L21.595 15.1025C21.7158 14.9929 21.8134 14.8602 21.882 14.7122C21.9505 14.5642 21.9887 14.404 21.9942 14.241C21.9997 14.0779 21.9725 13.9155 21.914 13.7632C21.8556 13.6109 21.7672 13.4719 21.6541 13.3544C21.5409 13.2369 21.4054 13.1433 21.2554 13.0792C21.1054 13.0151 20.9441 12.9817 20.781 12.9811C20.6179 12.9804 20.4563 13.0125 20.3058 13.0755C20.1554 13.1384 20.0191 13.2309 19.905 13.3475L17.5 15.6648V1.46875C17.5 1.14552 17.3716 0.835523 17.143 0.606963C16.9145 0.378403 16.6045 0.25 16.2812 0.25C15.958 0.25 15.648 0.378403 15.4195 0.606963C15.1909 0.835523 15.0625 1.14552 15.0625 1.46875V15.6648L12.6575 13.3475C12.5434 13.2309 12.4071 13.1384 12.2567 13.0755C12.1062 13.0125 11.9446 12.9804 11.7815 12.9811C11.6184 12.9817 11.4571 13.0151 11.3071 13.0792C11.1571 13.1433 11.0216 13.2369 10.9084 13.3544C10.7953 13.4719 10.7069 13.6109 10.6485 13.7632C10.59 13.9155 10.5628 14.0779 10.5683 14.241C10.5738 14.404 10.6119 14.5642 10.6805 14.7122C10.7491 14.8602 10.8467 14.9929 10.9675 15.1025L15.4362 19.4088ZM6.58 0.6075C6.35148 0.379268 6.04171 0.251072 5.71874 0.251072C5.39577 0.251072 5.08601 0.379268 4.85749 0.6075L0.388745 5.07625C0.173465 5.30728 0.0562645 5.61286 0.0618354 5.9286C0.0674062 6.24434 0.195313 6.54559 0.418609 6.76889C0.641905 6.99218 0.943156 7.12009 1.2589 7.12566C1.57463 7.13123 1.88021 7.01403 2.11124 6.79875L4.49999 4.41V18.5312C4.49999 18.8545 4.6284 19.1645 4.85696 19.393C5.08552 19.6216 5.39551 19.75 5.71874 19.75C6.04198 19.75 6.35197 19.6216 6.58053 19.393C6.80909 19.1645 6.93749 18.8545 6.93749 18.5312V4.41L9.32624 6.79875C9.55728 7.01403 9.86285 7.13123 10.1786 7.12566C10.4943 7.12009 10.7956 6.99218 11.0189 6.76889C11.2422 6.54559 11.3701 6.24434 11.3757 5.9286C11.3812 5.61286 11.264 5.30728 11.0487 5.07625L6.58 0.6075Z" fill="#2B2937" fill-opacity="0.24"/>
</svg>
