<svg width="20" height="22" viewBox="0 0 20 22" fill="none" xmlns="http://www.w3.org/2000/svg">
<path d="M16.435 16.1415C18.1418 14.4339 19.1005 12.1183 19.1005 9.70394C19.1005 7.28957 18.1418 4.97401 16.435 3.26634C15.5901 2.42092 14.587 1.75026 13.4828 1.29269C12.3787 0.835124 11.1952 0.599609 9.99998 0.599609C8.80478 0.599609 7.62129 0.835124 6.51714 1.29269C5.41299 1.75026 4.40983 2.42092 3.56498 3.26634C1.8582 4.97401 0.899414 7.28957 0.899414 9.70394C0.899414 12.1183 1.8582 14.4339 3.56498 16.1415L5.54228 18.0902L8.19818 20.6707L8.37108 20.8241C9.37858 21.6405 10.8541 21.5885 11.8031 20.6707L14.9686 17.5897L16.435 16.1415ZM4.48148 4.18284C5.20606 3.45794 6.06637 2.88289 7.01325 2.49056C7.96013 2.09822 8.97503 1.89629 9.99998 1.89629C11.0249 1.89629 12.0398 2.09822 12.9867 2.49056C13.9336 2.88289 14.7939 3.45794 15.5185 4.18284C16.9416 5.60693 17.7599 7.52556 17.8025 9.53839C17.8451 11.5512 17.1088 13.5028 15.7473 14.9858L15.5185 15.225L13.8012 16.9202L10.9022 19.7386L10.78 19.8426C10.5552 20.012 10.2814 20.1036 9.99998 20.1036C9.71854 20.1036 9.44475 20.012 9.21998 19.8426L9.09908 19.7386L5.22508 15.9621L4.48148 15.225L4.25268 14.9871C2.89112 13.5041 2.15484 11.5525 2.19747 9.53969C2.2401 7.52686 3.05835 5.60823 4.48148 4.18414V4.18284Z" fill="white"/>
</svg>
