<svg width="8" height="9" viewBox="0 0 8 9" fill="none" xmlns="http://www.w3.org/2000/svg">
<path d="M7.9001 4.70005C7.9001 5.73439 7.48921 6.72637 6.75781 7.45777C6.02642 8.18916 5.03444 8.60005 4.0001 8.60005C2.96575 8.60005 1.97377 8.18916 1.24238 7.45777C0.510989 6.72637 0.100098 5.73439 0.100098 4.70005C0.100098 3.6657 0.510989 2.67372 1.24238 1.94233C1.97377 1.21094 2.96575 0.800049 4.0001 0.800049C5.03444 0.800049 6.02642 1.21094 6.75781 1.94233C7.48921 2.67372 7.9001 3.6657 7.9001 4.70005ZM6.6001 4.70005C6.6001 4.01049 6.32617 3.34917 5.83857 2.86157C5.35098 2.37398 4.68966 2.10005 4.0001 2.10005C3.31053 2.10005 2.64921 2.37398 2.16162 2.86157C1.67403 3.34917 1.4001 4.01049 1.4001 4.70005C1.4001 5.38961 1.67403 6.05093 2.16162 6.53853C2.64921 7.02612 3.31053 7.30005 4.0001 7.30005C4.68966 7.30005 5.35098 7.02612 5.83857 6.53853C6.32617 6.05093 6.6001 5.38961 6.6001 4.70005Z" fill="white"/>
</svg>
