<svg xmlns="http://www.w3.org/2000/svg" xmlns:xlink="http://www.w3.org/1999/xlink" width="400" height="100" viewBox="0 0 400 100">
  <defs>
    <clipPath id="clip-path">
      <rect id="Rectangle_61" data-name="Rectangle 61" width="400" height="100" rx="10" fill="#f0f0f0"/>
    </clipPath>
  </defs>
  <g id="Mask_Group_7" data-name="Mask Group 7" clip-path="url(#clip-path)">
    <g id="Path_24" data-name="Path 24" transform="translate(144.395 -174.772)" fill="none" opacity="0.35">
      <path d="M120.628,0A120.63,120.63,0,1,1,0,120.63,120.629,120.629,0,0,1,120.628,0Z" stroke="none"/>
      <path d="M 120.627799987793 15 C 62.38442993164062 15 14.99998474121094 62.38540649414062 14.99998474121094 120.629997253418 C 14.99998474121094 178.8745880126953 62.38442993164062 226.2599945068359 120.627799987793 226.2599945068359 C 178.8711547851562 226.2599945068359 226.2555694580078 178.8745880126953 226.2555694580078 120.629997253418 C 226.2555694580078 62.38540649414062 178.8711547851562 15 120.627799987793 15 M 120.627799987793 0 C 187.2486572265625 0 241.2555694580078 54.00790405273438 241.2555694580078 120.629997253418 C 241.2555694580078 187.2520904541016 187.2486572265625 241.2599945068359 120.627799987793 241.2599945068359 C 54.00689697265625 241.2599945068359 -1.52587890625e-05 187.2520904541016 -1.52587890625e-05 120.629997253418 C -1.52587890625e-05 54.00790405273438 54.00689697265625 0 120.627799987793 0 Z" stroke="none" fill="#95d7f7"/>
    </g>
  </g>
</svg>
